<svg width="78" height="79" viewBox="0 0 78 79" fill="none" xmlns="http://www.w3.org/2000/svg">
<path d="M39 78.8286C60.5391 78.8286 78 61.3677 78 39.8286C78 18.2895 60.5391 0.828613 39 0.828613C17.4609 0.828613 0 18.2895 0 39.8286C0 61.3677 17.4609 78.8286 39 78.8286Z" fill="#CA203C"/>
<path d="M42.9221 24.1408C42.9221 21.9837 41.1572 20.2188 39.0001 20.2188C36.843 20.2188 35.0781 21.9837 35.0781 24.1408V39.8288C35.0781 41.9859 36.843 43.7508 39.0001 43.7508C41.1572 43.7508 42.9221 41.9859 42.9221 39.8288V24.1408Z" fill="white"/>
<path d="M35.0781 59.4388H42.9221V51.5948H35.0781V59.4388Z" fill="white"/>
</svg>
