<svg width="29" height="28" viewBox="0 0 29 28" fill="none" xmlns="http://www.w3.org/2000/svg">
<path d="M18.7533 13.9198L14.1933 9.3598C13.8457 9.00503 13.4308 8.72319 12.9729 8.53078C12.515 8.33837 12.0233 8.23926 11.5267 8.23926C11.03 8.23926 10.5383 8.33837 10.0804 8.53078C9.6225 8.72319 9.2076 9.00503 8.86 9.3598C8.27673 9.94853 7.9043 10.7135 7.80062 11.5357C7.69694 12.3579 7.86781 13.1914 8.28667 13.9065C7.86619 14.6244 7.69568 15.4614 7.80184 16.2866C7.908 17.1117 8.28484 17.8784 8.87333 18.4665C9.2223 18.8175 9.63805 19.0951 10.0961 19.2829C10.5541 19.4707 11.045 19.5648 11.54 19.5598C12.0346 19.5619 12.5247 19.4664 12.9822 19.2788C13.4398 19.0912 13.8559 18.8151 14.2067 18.4665L18.7533 13.9198ZM10.7533 16.5865C10.6525 16.4872 10.5725 16.3689 10.5179 16.2384C10.4633 16.108 10.4351 15.9679 10.4351 15.8265C10.4351 15.685 10.4633 15.545 10.5179 15.4145C10.5725 15.284 10.6525 15.1657 10.7533 15.0665L11.8867 13.9198L10.7533 12.7731C10.6368 12.6775 10.5416 12.5585 10.4738 12.4239C10.406 12.2892 10.3672 12.1419 10.3598 11.9913C10.3524 11.8407 10.3766 11.6903 10.4309 11.5496C10.4851 11.409 10.5682 11.2812 10.6748 11.1746C10.7814 11.068 10.9092 10.9849 11.0498 10.9307C11.1905 10.8764 11.3409 10.8522 11.4915 10.8596C11.642 10.867 11.7894 10.9058 11.9241 10.9736C12.0587 11.0414 12.1777 11.1366 12.2733 11.2531L14.94 13.9198L12.2733 16.5865C12.0746 16.7779 11.8093 16.8849 11.5333 16.8849C11.2573 16.8849 10.9921 16.7779 10.7933 16.5865H10.7533Z" fill="white"/>
<path d="M3.83391 10.4805C3.1547 10.4858 2.49225 10.692 1.93007 11.0732C1.36788 11.4543 0.931119 11.9934 0.674838 12.6224C0.418557 13.2515 0.354226 13.9423 0.489956 14.6078C0.625685 15.2733 0.955399 15.8838 1.43754 16.3622C1.91967 16.8406 2.53265 17.1656 3.19921 17.2962C3.86577 17.4268 4.55606 17.3571 5.18309 17.096C5.81012 16.8349 6.3458 16.394 6.72263 15.8289C7.09946 15.2637 7.30055 14.5997 7.30057 13.9205C7.29883 13.467 7.20777 13.0183 7.03261 12.6C6.85745 12.1817 6.60161 11.802 6.2797 11.4825C5.95778 11.1631 5.57611 10.9102 5.15646 10.7383C4.73681 10.5663 4.28741 10.4787 3.83391 10.4805ZM3.83391 14.8672C3.64667 14.8672 3.46365 14.8116 3.30797 14.7076C3.15229 14.6036 3.03095 14.4557 2.9593 14.2828C2.88765 14.1098 2.8689 13.9194 2.90543 13.7358C2.94196 13.5522 3.03212 13.3835 3.16451 13.2511C3.29691 13.1187 3.46559 13.0285 3.64922 12.992C3.83286 12.9555 4.0232 12.9742 4.19618 13.0459C4.36916 13.1175 4.51701 13.2389 4.62103 13.3946C4.72505 13.5502 4.78057 13.7333 4.78057 13.9205C4.78057 14.1716 4.68084 14.4124 4.5033 14.5899C4.32577 14.7674 4.08498 14.8672 3.83391 14.8672Z" fill="white"/>
<path d="M24.8467 0.399902H14.3267C13.9738 0.434136 13.6463 0.598526 13.408 0.861039C13.1698 1.12355 13.0378 1.46538 13.0378 1.8199C13.0378 2.17443 13.1698 2.51625 13.408 2.77877C13.6463 3.04128 13.9738 3.20567 14.3267 3.2399H24.8333C24.9654 3.23986 25.0923 3.2914 25.187 3.38356C25.2816 3.47571 25.3365 3.60118 25.34 3.73324V24.2666C25.3366 24.3963 25.2836 24.5199 25.1918 24.6117C25.1 24.7035 24.9764 24.7565 24.8467 24.7599H14.3267C13.9738 24.7941 13.6463 24.9585 13.408 25.221C13.1698 25.4836 13.0378 25.8254 13.0378 26.1799C13.0378 26.5344 13.1698 26.8763 13.408 27.1388C13.6463 27.4013 13.9738 27.5657 14.3267 27.5999H24.8467C25.7284 27.5964 26.5728 27.2436 27.1951 26.6189C27.8173 25.9942 28.1667 25.1483 28.1667 24.2666V3.73324C28.1667 2.85149 27.8173 2.00565 27.1951 1.38091C26.5728 0.756175 25.7284 0.403429 24.8467 0.399902Z" fill="white"/>
</svg>
