<svg width="455" height="435" viewBox="0 0 455 435" fill="none" xmlns="http://www.w3.org/2000/svg">
<path d="M215.91 56.7882L227.5 70.8948L239.09 56.7882C260.421 30.8248 292.449 15.3459 326.632 15.3459C389.13 15.3459 440 66.2153 440 128.714C440 178.444 410.08 239 345.716 309.118L356.766 319.262L345.716 309.118C296.462 362.776 242.729 404.45 227.497 415.894L227.497 415.893C212.268 404.452 158.536 362.779 109.281 309.117C44.9192 238.999 15 178.443 15 128.714C15 66.2153 65.8702 15.3459 128.368 15.3459C162.551 15.3459 194.579 30.8248 215.91 56.7882Z" stroke="black" stroke-width="30"/>
</svg>
