<svg width="147" height="107" viewBox="0 0 147 107" fill="none" xmlns="http://www.w3.org/2000/svg">
<path d="M33.4449 106.712C28.7528 99.6034 23.9662 92.2616 22.5176 84.0457C21.069 75.8298 23.7486 66.4191 31.315 61.8928C37.2525 58.3394 44.8503 58.4097 51.555 56.3211C67.8129 51.2567 76.9939 34.2781 93.1859 29.0402C105.676 24.9992 120.297 29.2554 129.481 38.0555C138.664 46.8556 142.75 59.4968 142.36 71.7097C141.971 83.9227 137.453 95.7645 131.333 106.598L33.4449 106.712Z" fill="#D8CEDF"/>
<path d="M13.4449 106.712C8.7528 99.6034 3.96619 92.2616 2.51761 84.0457C1.06903 75.8298 3.74862 66.4191 11.315 61.8928C17.2525 58.3394 24.8503 58.4097 31.555 56.3211C47.8129 51.2567 56.9939 34.2781 73.1859 29.0402C85.6763 24.9992 100.297 29.2554 109.481 38.0555C118.664 46.8556 122.75 59.4968 122.36 71.7097C121.971 83.9227 117.453 95.7645 111.333 106.598L13.4449 106.712Z" fill="#D8CEDF"/>
<path d="M26.7664 107L26.6496 106.923C26.5435 106.851 26.44 106.782 26.3338 106.711L26.2542 106.655L26.3418 106.528L26.4214 106.583C26.5276 106.655 26.6311 106.724 26.7372 106.796L26.854 106.873L26.7664 107ZM120.333 106.992L120.225 106.883C120.307 106.801 120.389 106.719 120.471 106.634L120.583 106.743C120.501 106.825 120.418 106.91 120.333 106.992ZM25.7447 106.305C25.5748 106.188 25.405 106.071 25.2378 105.952L25.3253 105.824C25.4952 105.941 25.6624 106.061 25.8322 106.177L25.7447 106.305ZM121.01 106.291L120.896 106.185C121.037 106.034 121.175 105.883 121.31 105.729L121.424 105.832C121.289 105.986 121.151 106.14 121.01 106.291ZM24.7309 105.596C24.5637 105.477 24.3965 105.355 24.2293 105.235L24.3195 105.11C24.4867 105.233 24.6539 105.352 24.8211 105.471L24.7309 105.596ZM121.835 105.368L121.719 105.267C121.851 105.11 121.984 104.954 122.114 104.795L122.234 104.893C122.101 105.052 121.968 105.209 121.835 105.368ZM23.7277 104.869C23.5605 104.747 23.3959 104.622 23.2314 104.497L23.3243 104.375C23.4888 104.5 23.6534 104.622 23.8179 104.747L23.7277 104.869ZM122.618 104.407L122.496 104.312C122.624 104.15 122.748 103.988 122.871 103.823L122.995 103.916C122.873 104.081 122.748 104.245 122.618 104.407ZM22.7431 104.121C22.5812 103.993 22.4166 103.866 22.2574 103.738L22.3529 103.619C22.5148 103.746 22.6741 103.874 22.8386 104.001L22.7431 104.121ZM123.361 103.415L123.237 103.324C123.356 103.157 123.473 102.99 123.59 102.82L123.717 102.908C123.6 103.078 123.484 103.247 123.361 103.415ZM21.7744 103.348C21.6151 103.218 21.4559 103.085 21.2993 102.953L21.4002 102.836C21.5568 102.969 21.716 103.101 21.8752 103.231L21.7744 103.348ZM20.8296 102.547C20.673 102.411 20.5191 102.273 20.3678 102.135L20.4713 102.021C20.6226 102.159 20.7765 102.295 20.9331 102.433L20.8296 102.547ZM124.062 102.393L123.932 102.308C124.044 102.135 124.155 101.963 124.264 101.788L124.394 101.87C124.285 102.045 124.174 102.22 124.062 102.393ZM19.9113 101.716C19.76 101.575 19.6114 101.432 19.4628 101.289L19.5716 101.177C19.7176 101.321 19.8662 101.464 20.0175 101.605L19.9113 101.716ZM124.715 101.339L124.582 101.26C124.686 101.082 124.789 100.904 124.89 100.726L125.026 100.8C124.922 100.981 124.818 101.161 124.715 101.339ZM19.0223 100.848C18.8763 100.7 18.733 100.551 18.5923 100.402L18.7038 100.296C18.8444 100.445 18.9878 100.593 19.1311 100.739L19.0223 100.848ZM125.317 100.256L125.179 100.185C125.275 100.004 125.371 99.8212 125.461 99.638L125.599 99.707C125.511 99.8902 125.416 100.073 125.317 100.256ZM18.173 99.9459C18.035 99.792 17.897 99.638 17.7643 99.4815L17.8811 99.3806C18.0138 99.5372 18.1491 99.6911 18.2871 99.8424L18.173 99.9459ZM125.872 99.1497L125.731 99.0834C125.819 98.8976 125.904 98.7118 125.989 98.5234L126.13 98.5871C126.047 98.7729 125.96 98.9613 125.872 99.1497ZM17.3662 99.0064C17.2362 98.8472 17.1061 98.6853 16.9814 98.5207L17.1035 98.4252C17.2282 98.5871 17.3556 98.749 17.4856 98.9082L17.3662 99.0064ZM16.6098 98.0245C16.4878 97.8573 16.3683 97.6901 16.2516 97.5175L16.3789 97.43C16.4957 97.5998 16.6151 97.767 16.7346 97.9316L16.6098 98.0245ZM126.374 98.0165L126.23 97.9581C126.31 97.767 126.384 97.5786 126.459 97.3848L126.602 97.4406C126.53 97.6317 126.453 97.8254 126.374 98.0165ZM15.9065 97.0027C15.7951 96.8302 15.6863 96.6524 15.5801 96.4745L15.7128 96.3949C15.8163 96.5701 15.9251 96.7479 16.0366 96.9178L15.9065 97.0027ZM126.822 96.8594L126.676 96.8063C126.745 96.6125 126.814 96.4188 126.878 96.2251L127.024 96.2729C126.96 96.4692 126.891 96.6656 126.822 96.8594ZM15.2749 95.9332C15.1767 95.7527 15.0785 95.5669 14.9883 95.3838L15.1263 95.3148C15.2165 95.4979 15.3121 95.681 15.4103 95.8588L15.2749 95.9332ZM127.215 95.6837L127.066 95.6386C127.127 95.4422 127.186 95.2458 127.242 95.0467L127.39 95.0892C127.334 95.2882 127.276 95.4873 127.215 95.6837ZM14.7202 94.8238C14.6353 94.638 14.5504 94.4469 14.4708 94.2559L14.6141 94.1975C14.6937 94.3859 14.776 94.577 14.8609 94.7628L14.7202 94.8238ZM127.552 94.4921L127.403 94.4523C127.454 94.2532 127.504 94.0542 127.549 93.8551L127.701 93.8896C127.653 94.0913 127.602 94.2904 127.552 94.4921ZM14.2425 93.6773C14.1709 93.4862 14.1019 93.2872 14.0355 93.0908L14.1815 93.043C14.2452 93.2368 14.3142 93.4331 14.3858 93.6242L14.2425 93.6773ZM127.833 93.2845L127.682 93.2527C127.725 93.051 127.764 92.8493 127.802 92.6476L127.953 92.6768C127.916 92.8785 127.876 93.0828 127.833 93.2845ZM13.8524 92.499C13.794 92.2999 13.7409 92.0982 13.6905 91.8992L13.8391 91.862C13.8896 92.0584 13.9426 92.2601 14.001 92.4565L13.8524 92.499ZM128.059 92.0664L127.905 92.0425C127.937 91.8381 127.969 91.6364 127.995 91.4321L128.149 91.4533C128.123 91.6577 128.091 91.862 128.059 92.0664ZM13.5499 91.2941C13.5074 91.0924 13.4676 90.888 13.4331 90.6837L13.5844 90.6571C13.6189 90.8588 13.656 91.0632 13.6985 91.2622L13.5499 91.2941ZM128.229 90.8376L128.075 90.819C128.099 90.6147 128.12 90.4103 128.139 90.206L128.292 90.2192C128.274 90.4263 128.253 90.6333 128.229 90.8376ZM13.3402 90.0706C13.3137 89.8663 13.2924 89.6566 13.2738 89.4523L13.4278 89.439C13.4437 89.6407 13.4676 89.8477 13.4915 90.0494L13.3402 90.0706ZM128.34 89.6035L128.186 89.5929C128.2 89.3886 128.213 89.1842 128.221 88.9772L128.375 88.9852C128.367 89.1922 128.356 89.3965 128.34 89.6035ZM13.2367 88.8339C13.2287 88.6508 13.2261 88.465 13.2261 88.2845V88.2129H13.38V88.2845C13.38 88.465 13.3827 88.6481 13.3906 88.8286L13.2367 88.8339ZM128.399 88.3641L128.245 88.3615C128.25 88.1571 128.253 87.9501 128.253 87.7458H128.407C128.407 87.9528 128.404 88.1598 128.399 88.3641ZM13.3986 87.5972L13.2447 87.5892C13.2553 87.3822 13.2712 87.1725 13.2924 86.9682L13.4464 86.9841C13.4251 87.1885 13.4092 87.3928 13.3986 87.5972ZM128.245 87.1301C128.239 86.9257 128.234 86.7187 128.223 86.5144L128.377 86.5064C128.385 86.7134 128.393 86.9204 128.399 87.1248L128.245 87.1301ZM13.5233 86.3764L13.3694 86.3525C13.4012 86.1481 13.4384 85.9411 13.4782 85.7394L13.6295 85.7713C13.5897 85.9703 13.5552 86.1747 13.5233 86.3764ZM128.189 85.8986C128.176 85.6943 128.16 85.4899 128.141 85.2829L128.295 85.2697C128.314 85.4767 128.33 85.681 128.343 85.888L128.189 85.8986ZM13.7728 85.1741L13.6242 85.1343C13.6772 84.9326 13.7356 84.7336 13.7993 84.5372L13.9453 84.5849C13.8816 84.7787 13.8232 84.9777 13.7728 85.1741ZM128.078 84.6699C128.054 84.4655 128.03 84.2612 128.001 84.0595L128.154 84.0382C128.184 84.2426 128.208 84.4469 128.231 84.654L128.078 84.6699ZM14.1496 84.009L14.0063 83.9533C14.0806 83.7596 14.1629 83.5658 14.2478 83.3801L14.3885 83.4438C14.3036 83.6269 14.224 83.818 14.1496 84.009ZM127.91 83.4491C127.878 83.2474 127.844 83.043 127.807 82.8413L127.958 82.8148C127.995 83.0191 128.03 83.2208 128.064 83.4252L127.91 83.4491ZM14.6592 82.8917L14.5212 82.8201C14.6167 82.6396 14.7202 82.4565 14.8264 82.2787L14.9591 82.3583C14.8529 82.5335 14.7521 82.7139 14.6592 82.8917ZM127.69 82.2389C127.648 82.0372 127.605 81.8381 127.557 81.6364L127.709 81.6019C127.756 81.8036 127.799 82.0053 127.841 82.207L127.69 82.2389ZM15.2935 81.8434L15.1661 81.7559C15.2829 81.586 15.4049 81.4162 15.5323 81.2543L15.6544 81.3472C15.5297 81.509 15.4076 81.6762 15.2935 81.8434ZM127.411 81.0366C127.361 80.8376 127.308 80.6386 127.252 80.4422L127.401 80.3997C127.457 80.5988 127.51 80.7978 127.56 80.9995L127.411 81.0366ZM16.0392 80.8721L15.9225 80.7713C16.0552 80.6147 16.1958 80.4607 16.3391 80.3095L16.4506 80.4156C16.3099 80.5642 16.1719 80.7182 16.0392 80.8721ZM16.8832 79.9804L16.777 79.8689C16.9257 79.7283 17.0796 79.5876 17.2362 79.4496L17.337 79.5664C17.1804 79.7017 17.0292 79.8397 16.8832 79.9804ZM127.08 79.8503C127.019 79.6539 126.958 79.4576 126.894 79.2638L127.04 79.216C127.106 79.4124 127.167 79.6088 127.228 79.8079L127.08 79.8503ZM17.8068 79.1736L17.7112 79.0542C17.8705 78.9268 18.0376 78.7994 18.2048 78.6773L18.2951 78.802C18.1305 78.9215 17.966 79.0489 17.8068 79.1736ZM126.692 78.68C126.623 78.4862 126.552 78.2951 126.477 78.1014L126.621 78.0457C126.695 78.2394 126.766 78.4331 126.835 78.6269L126.692 78.68ZM18.7993 78.4491L18.7117 78.3217C18.8789 78.2076 19.0541 78.0934 19.2319 77.9846L19.3142 78.1147C19.139 78.2235 18.9665 78.3349 18.7993 78.4491ZM19.8423 77.7962L19.7654 77.6635C19.9432 77.56 20.1236 77.4591 20.3068 77.3583L20.3811 77.4936C20.1979 77.5918 20.0175 77.6927 19.8423 77.7962ZM126.249 77.5308C126.169 77.3397 126.09 77.1513 126.007 76.9629L126.148 76.9018C126.23 77.0903 126.313 77.2813 126.39 77.4724L126.249 77.5308ZM20.9225 77.2044L20.8535 77.0664C21.0366 76.9735 21.2224 76.8806 21.4081 76.7904L21.4745 76.9284C21.2887 77.0212 21.1056 77.1115 20.9225 77.2044ZM22.0318 76.6683L21.9681 76.5276C22.1565 76.4427 22.345 76.3578 22.5334 76.2755L22.5944 76.4162C22.406 76.5011 22.2202 76.5834 22.0318 76.6683ZM125.753 76.4029C125.665 76.2171 125.578 76.0313 125.485 75.8482L125.623 75.7792C125.716 75.965 125.803 76.1508 125.891 76.3392L125.753 76.4029ZM23.1624 76.1773L23.104 76.034C23.2951 75.9544 23.4862 75.8774 23.6772 75.8004L23.7356 75.9438C23.5419 76.0181 23.3535 76.0977 23.1624 76.1773ZM24.3089 75.7155L24.2531 75.5722C24.4442 75.4979 24.6353 75.4236 24.8291 75.3519L24.8848 75.4952C24.691 75.5669 24.5 75.6412 24.3089 75.7155ZM125.209 75.2962C125.113 75.1131 125.018 74.9326 124.919 74.7495L125.055 74.6752C125.153 74.8583 125.251 75.0388 125.344 75.2245L125.209 75.2962ZM25.4607 75.2776L25.4076 75.1317C25.6013 75.06 25.7924 74.9883 25.9862 74.9193L26.0392 75.0653C25.8455 75.137 25.6518 75.206 25.4607 75.2776ZM26.6205 74.8556L26.5674 74.7097L27.1486 74.5L27.2017 74.646L26.6205 74.8556ZM27.7802 74.4363L27.7271 74.2904L28.3084 74.0807L28.3614 74.2267L27.7802 74.4363ZM124.619 74.2081C124.519 74.0303 124.415 73.8498 124.312 73.672L124.444 73.595C124.548 73.7728 124.651 73.9533 124.752 74.1338L124.619 74.2081ZM28.9453 74.0117L28.8922 73.8657C29.086 73.7941 29.2797 73.7224 29.4708 73.6508L29.5239 73.7967C29.3328 73.8684 29.139 73.9427 28.9453 74.0117ZM30.1051 73.5765L30.0493 73.4331C30.2431 73.3588 30.4342 73.2845 30.6252 73.2076L30.681 73.3509C30.4899 73.4278 30.2961 73.5021 30.1051 73.5765ZM123.998 73.1412C123.892 72.966 123.783 72.7882 123.677 72.6131L123.807 72.5308C123.916 72.706 124.025 72.8838 124.131 73.0589L123.998 73.1412ZM31.2569 73.12L31.1985 72.9767C31.3896 72.897 31.5806 72.8201 31.7691 72.7378L31.8301 72.8811C31.6417 72.9634 31.4506 73.043 31.2569 73.12ZM32.4007 72.6343L32.337 72.4936C32.5254 72.4087 32.7112 72.3238 32.897 72.2389L32.9633 72.3795C32.7776 72.4645 32.5891 72.5494 32.4007 72.6343ZM33.5233 72.1088L33.4543 71.9708C33.6401 71.8806 33.8232 71.7877 34.0037 71.6922L34.0753 71.8302C33.8922 71.9231 33.7091 72.0186 33.5233 72.1088ZM123.346 72.0903C123.234 71.9178 123.123 71.7426 123.011 71.5701L123.141 71.4852C123.253 71.6577 123.364 71.8328 123.476 72.0053L123.346 72.0903ZM34.6221 71.5356L34.5477 71.4002C34.7282 71.2994 34.906 71.1985 35.0838 71.095L35.1635 71.2277C34.983 71.3339 34.8025 71.4347 34.6221 71.5356ZM122.674 71.0526C122.56 70.8801 122.446 70.7102 122.332 70.5377L122.459 70.4528C122.573 70.6253 122.69 70.7951 122.802 70.9676L122.674 71.0526ZM35.6889 70.9039L35.6067 70.7739C35.7845 70.6598 35.9543 70.5457 36.1162 70.4315L36.2064 70.5589C36.0419 70.673 35.8694 70.7898 35.6889 70.9039ZM36.7027 70.1847L36.6072 70.0626C36.7717 69.9326 36.9283 69.7999 37.0743 69.6672L37.1778 69.7813C37.0292 69.9167 36.8699 70.052 36.7027 70.1847ZM121.984 70.0255C121.867 69.8556 121.753 69.6858 121.636 69.5159L121.764 69.4284C121.881 69.5982 121.997 69.7681 122.114 69.9379L121.984 70.0255ZM40.9649 69.8583H40.9066V69.7044H40.9649C41.1507 69.7044 41.3365 69.7017 41.5223 69.6938L41.5276 69.8477C41.3418 69.8556 41.1534 69.8583 40.9649 69.8583ZM40.2882 69.845C40.0812 69.8371 39.8742 69.8238 39.6672 69.8079L39.6804 69.6539C39.8821 69.6699 40.0891 69.6831 40.2935 69.6911L40.2882 69.845ZM42.1486 69.8158L42.138 69.6619C42.3397 69.6486 42.5467 69.6301 42.751 69.6062L42.767 69.7601C42.5626 69.7813 42.3529 69.7999 42.1486 69.8158ZM39.0488 69.7442C38.9347 69.7309 38.8232 69.715 38.7091 69.6991C38.6162 69.6858 38.526 69.6725 38.4331 69.6566L38.4596 69.5053C38.5499 69.5212 38.6428 69.5345 38.733 69.5478C38.8445 69.5637 38.9559 69.5796 39.0674 69.5929L39.0488 69.7442ZM43.3827 69.6805L43.3614 69.5266C43.5631 69.4974 43.7648 69.4655 43.9692 69.4284L43.9957 69.5796C43.7914 69.6194 43.5844 69.6513 43.3827 69.6805ZM37.8227 69.5372C37.7033 69.5106 37.5865 69.4814 37.4671 69.4496L37.3397 69.4151C37.138 69.3594 36.9442 69.2983 36.7585 69.232L36.8115 69.086C36.9973 69.1524 37.1937 69.2134 37.3954 69.2691L37.3609 69.3912L37.4299 69.3196C37.4883 69.2585 37.5467 69.1975 37.6024 69.1364L37.7165 69.2399C37.6873 69.2718 37.6608 69.301 37.6316 69.3328C37.7059 69.3514 37.7802 69.37 37.8545 69.3859L37.8227 69.5372ZM44.6035 69.4629L44.5716 69.3116C44.7707 69.2691 44.9724 69.2214 45.1714 69.1709L45.2086 69.3222C45.0069 69.3726 44.8052 69.4177 44.6035 69.4629ZM45.8057 69.1603L45.7632 69.0117C45.9596 68.956 46.156 68.8976 46.3524 68.8339L46.4002 68.9799C46.2038 69.0462 46.0048 69.1046 45.8057 69.1603ZM121.283 69.0064C121.167 68.8365 121.05 68.6667 120.93 68.4995L121.058 68.4119C121.175 68.5818 121.294 68.7516 121.411 68.9188L121.283 69.0064ZM36.1826 68.9984C35.9888 68.9082 35.8004 68.8126 35.6279 68.7091L35.7075 68.5764C35.8774 68.6773 36.0605 68.7702 36.2489 68.8578L36.1826 68.9984ZM46.9894 68.7861L46.9389 68.6401C47.1327 68.5711 47.3238 68.5021 47.5175 68.4278L47.5732 68.5711C47.3768 68.6455 47.1831 68.7171 46.9894 68.7861ZM38.1199 68.7596L37.9952 68.6667C38.1199 68.4995 38.2341 68.3296 38.3322 68.1598L38.4649 68.2367C38.3641 68.4146 38.2473 68.5897 38.1199 68.7596ZM35.1051 68.3588C34.9352 68.2288 34.776 68.0881 34.6353 67.9422L34.7468 67.8334C34.8848 67.974 35.0387 68.1094 35.2006 68.2341L35.1051 68.3588ZM48.1438 68.3403L48.0854 68.1969C48.2739 68.1173 48.4623 68.035 48.6507 67.9528L48.7144 68.0934C48.526 68.1784 48.3349 68.2606 48.1438 68.3403ZM120.578 67.9926L120.225 67.4857L120.352 67.3981L120.705 67.905L120.578 67.9926ZM49.2744 67.8307L49.208 67.6927C49.3938 67.6025 49.5769 67.5122 49.7574 67.4167L49.8291 67.5547C49.6459 67.6476 49.4602 67.7405 49.2744 67.8307ZM38.7489 67.6794L38.6056 67.621C38.6852 67.4326 38.7489 67.2389 38.7967 67.0478L38.948 67.0849C38.8975 67.2813 38.8312 67.483 38.7489 67.6794ZM34.2319 67.4591C34.1125 67.2893 34.0116 67.1009 33.9294 66.9018L34.0727 66.8434C34.1497 67.0319 34.2478 67.2097 34.3593 67.3716L34.2319 67.4591ZM50.3758 67.2628L50.3015 67.1274C50.4819 67.0292 50.6597 66.9284 50.8376 66.8249L50.9145 66.9576C50.7367 67.0611 50.5562 67.1619 50.3758 67.2628ZM119.872 66.9788L119.521 66.4719L119.649 66.3843L119.999 66.8912L119.872 66.9788ZM51.448 66.6364L51.3657 66.5037C51.5408 66.3949 51.7134 66.2861 51.8859 66.1746L51.9708 66.3047C51.7983 66.4188 51.6231 66.5276 51.448 66.6364ZM39.0488 66.4586L38.8949 66.448C38.8975 66.3923 38.9002 66.3365 38.9002 66.2808C38.9002 66.1401 38.8869 65.9942 38.863 65.8509L39.0143 65.8243C39.0408 65.9756 39.0541 66.1295 39.0541 66.2781C39.0541 66.3392 39.0541 66.4002 39.0488 66.4586ZM33.7463 66.2967C33.7064 66.0924 33.6852 65.8827 33.6852 65.6757L33.8391 65.6677C33.8391 65.8747 33.8577 66.0738 33.8949 66.2675L33.7463 66.2967ZM52.4856 65.9597L52.3981 65.8323C52.5679 65.7155 52.7351 65.5987 52.9023 65.4793L52.9925 65.6041C52.8254 65.7261 52.6555 65.8429 52.4856 65.9597ZM119.171 65.9597C119.054 65.7898 118.94 65.62 118.823 65.4501L118.951 65.3625C119.065 65.5324 119.182 65.7022 119.298 65.8721L119.171 65.9597ZM38.7011 65.2723C38.6295 65.0892 38.5366 64.9061 38.4304 64.7336L38.5605 64.6513C38.6719 64.8318 38.7675 65.0228 38.8445 65.2166L38.7011 65.2723ZM53.4941 65.2378L53.4013 65.1157C53.5658 64.991 53.7277 64.8663 53.8896 64.7389L53.9851 64.8609C53.8206 64.9857 53.6587 65.1131 53.4941 65.2378ZM33.9028 65.0706L33.7516 65.0388C33.7967 64.8265 33.863 64.6247 33.9506 64.4363L34.0913 64.5C34.009 64.6778 33.9453 64.8716 33.9028 65.0706ZM118.478 64.9379C118.364 64.7654 118.25 64.5956 118.139 64.423L118.269 64.3381C118.38 64.5106 118.494 64.6805 118.608 64.853L118.478 64.9379ZM54.4655 64.4655L54.3673 64.3461C54.5265 64.2134 54.6831 64.0807 54.837 63.948L54.9379 64.0648C54.784 64.2001 54.6247 64.3355 54.4655 64.4655ZM38.0695 64.2505C37.9342 64.0993 37.7855 63.9613 37.629 63.8365L37.7245 63.7144C37.889 63.8418 38.043 63.9878 38.1836 64.147L38.0695 64.2505ZM34.4071 63.9958L34.2877 63.8976C34.4257 63.733 34.5849 63.5871 34.7601 63.4703L34.845 63.5977C34.6831 63.7091 34.5371 63.8418 34.4071 63.9958ZM117.802 63.9055C117.69 63.733 117.579 63.5579 117.47 63.3854L117.6 63.3031C117.709 63.4756 117.82 63.6508 117.932 63.8233L117.802 63.9055ZM55.405 63.6534L55.3015 63.5393C55.4554 63.4013 55.604 63.2606 55.7553 63.12L55.8614 63.2314C55.7102 63.3748 55.5589 63.5154 55.405 63.6534ZM37.1221 63.5128C36.9389 63.4199 36.7505 63.3509 36.5594 63.3031L36.5966 63.1518C36.7956 63.1996 36.9973 63.2739 37.1911 63.3721L37.1221 63.5128ZM35.3837 63.3403L35.336 63.1943C35.5403 63.1279 35.75 63.0934 35.9649 63.0881L35.9702 63.242C35.7685 63.2447 35.5722 63.2792 35.3837 63.3403ZM117.143 62.8599C117.037 62.6847 116.931 62.5069 116.825 62.3318L116.958 62.2521C117.061 62.4273 117.167 62.6051 117.276 62.7803L117.143 62.8599ZM56.3047 62.7988L56.1958 62.69C56.2861 62.5998 56.379 62.5096 56.4665 62.4167C56.5196 62.3609 56.5754 62.3052 56.6284 62.2495L56.7399 62.3583C56.6868 62.414 56.6311 62.4698 56.578 62.5255C56.4878 62.6184 56.3975 62.7086 56.3047 62.7988ZM57.1672 61.9098L57.0531 61.8036C57.1937 61.6523 57.3317 61.5011 57.4697 61.3498L57.5838 61.4533C57.4485 61.6072 57.3105 61.7585 57.1672 61.9098ZM116.514 61.7983C116.411 61.6205 116.31 61.44 116.212 61.2596L116.347 61.1853C116.445 61.3657 116.546 61.5435 116.65 61.7214L116.514 61.7983ZM57.9979 60.9915L57.8811 60.8907C58.0164 60.7367 58.1518 60.5802 58.2845 60.4236L58.4013 60.5244C58.2686 60.6784 58.1359 60.8349 57.9979 60.9915ZM115.917 60.7155C115.822 60.5324 115.726 60.3493 115.633 60.1661L115.771 60.0971C115.864 60.2803 115.957 60.4607 116.053 60.6439L115.917 60.7155ZM58.7993 60.0441L58.6799 59.9459C58.81 59.7866 58.94 59.6274 59.0674 59.4655L59.1868 59.5611C59.0594 59.7256 58.932 59.8848 58.7993 60.0441ZM115.363 59.6115C115.275 59.4257 115.187 59.2373 115.102 59.0515L115.243 58.9878C115.328 59.1736 115.413 59.3594 115.501 59.5451L115.363 59.6115ZM59.5716 59.078L59.4496 58.9825C59.577 58.8206 59.7017 58.6561 59.8238 58.4915L59.9458 58.5844C59.8238 58.7516 59.699 58.9135 59.5716 59.078ZM114.856 58.4862C114.776 58.2951 114.699 58.104 114.622 57.913L114.765 57.8572C114.84 58.0483 114.917 58.2367 114.996 58.4278L114.856 58.4862ZM60.32 58.0908L60.1953 57.9979C60.3174 57.8333 60.4395 57.6661 60.5589 57.499L60.6836 57.5892C60.5642 57.7564 60.4421 57.9236 60.32 58.0908ZM114.407 57.3318C114.338 57.138 114.272 56.9416 114.205 56.7452L114.351 56.6975C114.415 56.8912 114.481 57.0876 114.55 57.2787L114.407 57.3318ZM61.0446 57.0876L60.9172 56.9974C61.0366 56.8302 61.1534 56.6603 61.2702 56.4905L61.3975 56.578C61.2808 56.7479 61.1613 56.9177 61.0446 57.0876ZM114.025 56.1534C113.967 55.9544 113.913 55.7553 113.86 55.5563L114.009 55.5191C114.059 55.7182 114.115 55.9146 114.171 56.1136L114.025 56.1534ZM61.7479 56.0685L61.6205 55.9809C61.7372 55.8111 61.8514 55.6412 61.9655 55.4687L62.0929 55.5536C61.9788 55.7288 61.8646 55.8986 61.7479 56.0685ZM62.4352 55.0414L62.3052 54.9565C62.4193 54.784 62.5308 54.6115 62.6422 54.439L62.7723 54.5239C62.6608 54.6964 62.5494 54.8689 62.4352 55.0414ZM113.714 54.9512C113.669 54.7468 113.627 54.5425 113.59 54.3408L113.741 54.3116C113.778 54.5106 113.818 54.7123 113.863 54.9167L113.714 54.9512ZM113.537 54.1338V54.025C113.51 53.8631 113.484 53.7012 113.462 53.5366L113.616 53.5154C113.64 53.6906 113.667 53.8657 113.699 54.0409L113.714 54.1311L113.537 54.1338ZM113.967 54.1232L113.959 53.9692C114.163 53.9586 114.367 53.9427 114.569 53.9215L114.585 54.0754C114.383 54.0993 114.174 54.1152 113.967 54.1232ZM112.916 54.1205C112.709 54.1099 112.502 54.0913 112.295 54.0701L112.311 53.9161C112.512 53.94 112.719 53.956 112.921 53.9666L112.916 54.1205ZM63.1093 54.0037L62.9793 53.9215C63.0908 53.7489 63.2022 53.5738 63.311 53.4013L63.4411 53.4836C63.3323 53.6587 63.2208 53.8312 63.1093 54.0037ZM115.203 53.9905L115.177 53.8392C115.378 53.8047 115.58 53.7649 115.777 53.7171L115.811 53.8684C115.615 53.9135 115.41 53.956 115.203 53.9905ZM111.679 53.9798C111.475 53.9453 111.27 53.9029 111.068 53.8551L111.103 53.7038C111.302 53.749 111.504 53.7914 111.703 53.8259L111.679 53.9798ZM116.416 53.7038L116.371 53.5552C116.567 53.4968 116.761 53.4278 116.95 53.3562L117.005 53.4995C116.812 53.5738 116.615 53.6428 116.416 53.7038ZM110.466 53.6959C110.267 53.6375 110.068 53.5711 109.874 53.4995L109.927 53.3535C110.118 53.4225 110.315 53.4889 110.509 53.5472L110.466 53.6959ZM109.298 53.2686C109.107 53.1863 108.919 53.0934 108.736 52.9979L108.807 52.8599C108.988 52.9528 109.174 53.043 109.359 53.1253L109.298 53.2686ZM117.579 53.2606L117.515 53.12C117.701 53.035 117.884 52.9395 118.062 52.844L118.136 52.9793C117.955 53.0775 117.77 53.173 117.579 53.2606ZM63.7728 52.9607L63.6428 52.8785C63.7516 52.7033 63.863 52.5308 63.9719 52.3556L64.1019 52.4379C63.9931 52.6131 63.8843 52.7882 63.7728 52.9607ZM113.391 52.9209C113.372 52.7113 113.356 52.5043 113.348 52.2999L113.502 52.2946C113.51 52.4936 113.523 52.7006 113.542 52.9077L113.391 52.9209ZM108.194 52.6927C108.016 52.5839 107.841 52.4698 107.674 52.3503L107.764 52.2256C107.929 52.3424 108.101 52.4565 108.277 52.5626L108.194 52.6927ZM118.667 52.6476L118.579 52.5202C118.744 52.4061 118.906 52.2787 119.062 52.146L119.163 52.2627C119.004 52.4007 118.837 52.5281 118.667 52.6476ZM107.18 51.9708C107.037 51.8514 106.897 51.7267 106.761 51.5993L106.713 51.5542L106.82 51.4427L106.865 51.4878C106.997 51.6125 107.135 51.7346 107.276 51.8514L107.18 51.9708ZM64.431 51.9151L64.3009 51.8328L64.6274 51.3073L64.7574 51.3896L64.431 51.9151ZM119.614 51.8328L119.503 51.7267C119.643 51.578 119.776 51.4215 119.898 51.2622L120.02 51.3551C119.895 51.5196 119.76 51.6815 119.614 51.8328ZM113.497 51.6815L113.343 51.6789C113.348 51.4666 113.359 51.2596 113.377 51.0552L113.531 51.0685C113.513 51.2675 113.502 51.4745 113.497 51.6815ZM106.281 51.1083C106.143 50.957 106.007 50.7978 105.877 50.6359L105.997 50.5403C106.124 50.6996 106.26 50.8562 106.395 51.0048L106.281 51.1083ZM65.0865 50.8668L64.9565 50.7845L65.2829 50.259L65.4129 50.3413L65.0865 50.8668ZM120.376 50.8402L120.243 50.7606C120.349 50.5828 120.442 50.3997 120.519 50.2192L120.662 50.2803C120.58 50.466 120.485 50.6545 120.376 50.8402ZM113.608 50.4634L113.457 50.4368C113.492 50.2272 113.537 50.0228 113.587 49.8264L113.736 49.8662C113.685 50.0573 113.643 50.259 113.608 50.4634ZM105.501 50.1396C105.384 49.9724 105.267 49.7999 105.156 49.6221L105.286 49.5398C105.394 49.715 105.509 49.8848 105.625 50.0494L105.501 50.1396ZM65.7394 49.8185L65.6093 49.7362L65.9384 49.2134L66.0685 49.2957L65.7394 49.8185ZM120.861 49.6831L120.71 49.646C120.761 49.4443 120.787 49.2452 120.795 49.0515L120.949 49.0568C120.944 49.2612 120.912 49.4708 120.861 49.6831ZM113.919 49.285L113.773 49.232C113.847 49.0329 113.932 48.8418 114.025 48.6587L114.163 48.7277C114.073 48.9029 113.99 49.0913 113.919 49.285ZM104.84 49.0886C104.742 48.9135 104.643 48.7277 104.548 48.5393L104.686 48.4703C104.779 48.6561 104.877 48.8392 104.972 49.0143L104.84 49.0886ZM66.3975 48.7702L66.2675 48.6879C66.379 48.5127 66.4878 48.3402 66.5992 48.1651L66.7293 48.2473C66.6178 48.4225 66.509 48.5977 66.3975 48.7702ZM120.753 48.4544C120.713 48.258 120.652 48.0669 120.564 47.8864L120.705 47.8201C120.798 48.0112 120.864 48.2155 120.904 48.4225L120.753 48.4544ZM114.471 48.2022L114.343 48.1147C114.46 47.9421 114.59 47.775 114.728 47.6184L114.845 47.7219C114.712 47.8732 114.585 48.035 114.471 48.2022ZM104.28 47.9793C104.197 47.7988 104.115 47.6078 104.033 47.4087L104.176 47.3503C104.259 47.5467 104.341 47.7378 104.42 47.9156L104.28 47.9793ZM67.061 47.7298L66.931 47.6449C67.0425 47.4724 67.1539 47.2972 67.268 47.1247L67.3981 47.2097C67.2866 47.3848 67.1725 47.5573 67.061 47.7298ZM120.243 47.3822C120.118 47.2282 119.97 47.0929 119.808 46.9735L119.898 46.8487C120.071 46.9761 120.227 47.1221 120.36 47.284L120.243 47.3822ZM115.28 47.3052L115.185 47.1858C115.344 47.0584 115.522 46.939 115.708 46.8328L115.785 46.9682C115.604 47.069 115.434 47.1831 115.28 47.3052ZM103.805 46.8302C103.73 46.6364 103.661 46.4427 103.592 46.2463L103.738 46.1959C103.807 46.3896 103.876 46.5833 103.951 46.7744L103.805 46.8302ZM116.331 46.7081L116.275 46.5648C116.469 46.4904 116.671 46.4268 116.875 46.379L116.91 46.5303C116.713 46.5754 116.517 46.6338 116.331 46.7081ZM67.7378 46.6948L67.6077 46.6099C67.7219 46.4374 67.836 46.2675 67.9501 46.095L68.0775 46.1799C67.9634 46.3525 67.8492 46.525 67.7378 46.6948ZM119.288 46.6762C119.11 46.5993 118.916 46.5356 118.714 46.4931L118.749 46.3418C118.961 46.3869 119.163 46.4533 119.351 46.5356L119.288 46.6762ZM117.51 46.4268L117.494 46.2728C117.703 46.2516 117.916 46.2489 118.123 46.2596L118.115 46.4135C117.916 46.4029 117.711 46.4082 117.51 46.4268ZM68.4251 45.6704L68.2978 45.5828C68.4145 45.413 68.5313 45.2431 68.6481 45.0733L68.7755 45.1608C68.6587 45.3333 68.5419 45.5032 68.4251 45.6704ZM103.391 45.6624C103.324 45.466 103.261 45.2696 103.2 45.0733L103.346 45.0255C103.409 45.2219 103.473 45.4183 103.537 45.612L103.391 45.6624ZM69.1311 44.6592L69.0064 44.569C69.1258 44.4018 69.2452 44.2346 69.3673 44.0674L69.492 44.1576C69.3699 44.3275 69.2505 44.492 69.1311 44.6592ZM103.014 44.4814C102.953 44.285 102.892 44.086 102.831 43.8896L102.979 43.8445C103.04 44.0409 103.099 44.2399 103.162 44.4363L103.014 44.4814ZM69.8583 43.664L69.7335 43.5711C69.8556 43.4066 69.9804 43.242 70.1051 43.0775L70.2272 43.1704C70.1051 43.3349 69.9804 43.4995 69.8583 43.664ZM102.65 43.2978C102.589 43.1014 102.528 42.905 102.467 42.7086L102.616 42.6635C102.677 42.8599 102.738 43.0563 102.799 43.2553L102.65 43.2978ZM70.6067 42.6847L70.4846 42.5892C70.612 42.4273 70.7394 42.2654 70.8694 42.1035L70.9888 42.199C70.8615 42.3609 70.7341 42.5228 70.6067 42.6847ZM102.281 42.1194C102.218 41.923 102.154 41.7293 102.088 41.5356L102.234 41.4851C102.3 41.6789 102.366 41.8753 102.43 42.0717L102.281 42.1194ZM71.3816 41.7213L71.2622 41.6231C71.3949 41.4639 71.5276 41.3073 71.6603 41.1481L71.7771 41.2489C71.6444 41.4082 71.5143 41.5648 71.3816 41.7213ZM101.881 40.9544C101.809 40.7606 101.737 40.5695 101.663 40.3785L101.806 40.3227C101.881 40.5138 101.955 40.7075 102.024 40.9013L101.881 40.9544ZM72.1831 40.7845L72.0663 40.6837C72.2017 40.5297 72.3397 40.3758 72.4804 40.2219L72.5945 40.3254C72.4565 40.4766 72.3185 40.6306 72.1831 40.7845ZM73.0138 39.8716L72.9023 39.7654C73.043 39.6141 73.1863 39.4655 73.3296 39.3169L73.4411 39.4257C73.2951 39.5717 73.1544 39.7203 73.0138 39.8716ZM101.429 39.8079C101.347 39.6168 101.262 39.4283 101.177 39.2479L101.318 39.1815C101.403 39.3647 101.488 39.5531 101.573 39.7468L101.429 39.8079ZM73.8737 38.9878L73.7649 38.879C73.9108 38.733 74.0594 38.5897 74.2081 38.4464L74.3142 38.5579C74.1656 38.6985 74.0196 38.8418 73.8737 38.9878ZM100.907 38.6985C100.811 38.5154 100.713 38.3323 100.612 38.1598L100.745 38.0828C100.846 38.258 100.946 38.4411 101.045 38.6269L100.907 38.6985ZM74.7654 38.1359L74.6619 38.0218C74.8132 37.8811 74.9671 37.7431 75.1237 37.6078L75.2245 37.7245C75.0706 37.8599 74.9167 37.9979 74.7654 38.1359ZM100.291 37.6343C100.179 37.4618 100.063 37.2919 99.9432 37.1274L100.068 37.0372C100.187 37.2044 100.307 37.3769 100.421 37.5494L100.291 37.6343ZM75.6916 37.3211L75.5908 37.2017C75.75 37.069 75.9092 36.9363 76.0685 36.8089L76.164 36.9283C76.0074 37.0584 75.8482 37.1884 75.6916 37.3211ZM99.5664 36.6417C99.4363 36.4851 99.301 36.3286 99.163 36.1799L99.2771 36.0738C99.4177 36.2251 99.5557 36.3843 99.6858 36.5435L99.5664 36.6417ZM76.6497 36.5488L76.5568 36.4268C76.7213 36.302 76.8859 36.1773 77.0531 36.0552L77.1433 36.1799C76.9788 36.2994 76.8142 36.4241 76.6497 36.5488ZM77.6449 35.8217L77.5573 35.6943C77.7272 35.5775 77.897 35.4607 78.0695 35.3466L78.1545 35.4766C77.9819 35.5881 77.8121 35.7049 77.6449 35.8217ZM98.7357 35.7447C98.5897 35.604 98.4358 35.466 98.2819 35.3307L98.3827 35.2139C98.5393 35.3493 98.6959 35.4899 98.8418 35.6332L98.7357 35.7447ZM78.672 35.1449L78.5897 35.0149C78.7649 34.9061 78.9427 34.7999 79.1205 34.6937L79.1974 34.8264C79.0223 34.9299 78.8471 35.0361 78.672 35.1449ZM97.8068 34.9432C97.6449 34.8185 97.4777 34.699 97.3105 34.5823L97.3981 34.4549C97.5679 34.5717 97.7378 34.6937 97.9023 34.8211L97.8068 34.9432ZM79.7335 34.5239L79.6592 34.3885C79.8397 34.2903 80.0228 34.1921 80.2059 34.0993L80.2776 34.2373C80.0945 34.3301 79.914 34.4257 79.7335 34.5239ZM96.793 34.2479C96.6205 34.1417 96.44 34.0382 96.2622 33.94L96.3365 33.8047C96.517 33.9029 96.6975 34.009 96.8753 34.1152L96.793 34.2479ZM80.827 33.9613L80.7606 33.8206C80.9464 33.733 81.1348 33.6454 81.3232 33.5605L81.3869 33.7012C81.1985 33.7887 81.0127 33.8737 80.827 33.9613ZM95.7155 33.6587C95.5324 33.5685 95.344 33.4835 95.1555 33.4039L95.2166 33.2633C95.405 33.3455 95.5961 33.4331 95.7819 33.5234L95.7155 33.6587ZM81.9522 33.465L81.8938 33.3217C82.0849 33.2447 82.2787 33.1704 82.4724 33.0987L82.5255 33.2447C82.3344 33.3137 82.1407 33.388 81.9522 33.465ZM94.5876 33.173C94.3965 33.1014 94.2028 33.0324 94.009 32.966L94.0568 32.8201C94.2532 32.8838 94.4496 32.9554 94.6433 33.0271L94.5876 33.173ZM83.1067 33.043L83.0589 32.897C83.2527 32.8333 83.4517 32.7723 83.6534 32.7166L83.6959 32.8652C83.4968 32.9183 83.3004 32.9793 83.1067 33.043ZM93.4199 32.7856C93.2235 32.7298 93.0244 32.6768 92.8254 32.629L92.8625 32.4777C93.0616 32.5255 93.2659 32.5812 93.4623 32.6369L93.4199 32.7856ZM84.2903 32.7033L84.2532 32.552C84.4549 32.5016 84.6539 32.4565 84.8583 32.4114L84.8901 32.5626C84.6884 32.6077 84.4894 32.6529 84.2903 32.7033ZM92.2256 32.4936C92.0265 32.4538 91.8222 32.4167 91.6205 32.3822L91.6444 32.2309C91.8487 32.2654 92.0531 32.3025 92.2548 32.3424L92.2256 32.4936ZM85.4926 32.4459L85.466 32.2946C85.6677 32.2574 85.8747 32.2256 86.0791 32.1964L86.1003 32.3503C85.8986 32.3769 85.6943 32.4087 85.4926 32.4459ZM91.0101 32.2946C90.8084 32.268 90.604 32.2468 90.397 32.2282L90.4103 32.0743C90.6173 32.0929 90.8243 32.1168 91.0287 32.1407L91.0101 32.2946ZM86.7107 32.268L86.6948 32.1141C86.8992 32.0902 87.1062 32.0717 87.3132 32.0557L87.3264 32.2097C87.1194 32.2256 86.9151 32.2468 86.7107 32.268ZM89.784 32.1831C89.5796 32.1725 89.3726 32.1645 89.1683 32.1592L89.1709 32.0053C89.3779 32.0106 89.5876 32.0186 89.7919 32.0292L89.784 32.1831ZM87.9368 32.1725L87.9289 32.0186C88.1359 32.0106 88.3429 32.0027 88.5499 32L88.5526 32.1539C88.3482 32.1566 88.1438 32.1645 87.9368 32.1725Z" fill="#2E0F46"/>
<path d="M28.9729 87.3617C29.1991 87.5703 29.4187 87.7768 29.6362 87.9788C30.4729 88.7585 31.2416 89.4854 31.8587 90.1377C37.4392 96.03 39.4926 106.611 39.4926 106.611H42.7759C42.7759 106.611 42.6244 105.203 42.1851 102.952C41.423 99.0454 39.7935 92.6127 36.5805 86.5557C36.4619 86.3295 36.3389 86.1055 36.2159 85.8815C34.5688 82.9034 32.5285 80.0418 30.0073 77.6524C29.7613 77.4196 29.4165 77.1582 29.0015 76.8991C28.8785 76.8222 28.7489 76.7454 28.6127 76.6685C26.7087 75.5946 23.8009 74.7512 22.5513 76.5785C22.5315 76.607 22.5118 76.6377 22.492 76.6685C20.6801 79.5828 25.2262 83.8785 28.9729 87.3617Z" fill="#018652"/>
<path d="M27.6838 63.9021C27.7343 64.0317 27.787 64.1613 27.8441 64.2953C28.7885 66.5595 30.4312 69.3662 32.9546 72.7989C35.6296 76.4313 38.478 83.4327 40.3646 91.6618C40.3646 91.6662 40.3667 91.6706 40.3667 91.675C40.4436 92.0132 40.5205 92.3536 40.593 92.694C40.5973 92.7138 40.6017 92.7336 40.6061 92.7533C41.3111 96.019 41.8602 99.4605 42.1852 102.946C42.2906 104.07 42.3697 105.195 42.4268 106.319C42.4312 106.414 42.4377 106.512 42.4399 106.611L47.4275 106.587C47.7679 100.71 47.2298 79.6971 42.5344 68.323C42.4795 68.1891 42.4224 68.0551 42.3653 67.9233C42.1303 67.3831 41.8843 66.8692 41.6252 66.3794C35.0827 54.0786 29.7241 55.7389 28.0791 57.061C28.0242 57.105 27.9737 57.1489 27.9254 57.1928C27.921 57.1972 27.9166 57.2016 27.9122 57.206C26.6516 58.3766 26.3485 60.5003 27.6838 63.9021Z" fill="#018652"/>
<path d="M30.5102 102.348C31.6434 104.015 32.9106 105.555 33.8352 106.613H39.0862C39.0599 106.552 35.0431 92.6918 29.344 93.7372C26.5658 94.2467 28.3074 99.1091 30.5102 102.348Z" fill="#018652"/>
<path d="M27.9121 57.206C30.7342 59.5032 33.0753 62.2572 35.0167 65.2791C35.0607 65.3494 35.1068 65.4175 35.1507 65.4878C40.8805 74.525 43.0811 85.9144 43.8717 94.7694C43.8783 94.8441 43.8849 94.9166 43.8915 94.9912C44.3285 99.9919 44.3154 104.162 44.2407 106.611L44.3373 106.613L44.4581 106.618C44.5657 103.001 44.5789 93.5242 42.3827 83.5074C41.6931 80.3647 40.841 77.4064 39.833 74.6634C39.8066 74.5887 39.7781 74.5141 39.7517 74.4394C39.0445 72.5331 38.2605 70.73 37.4062 69.039C34.9135 64.1086 31.7752 60.0786 28.079 57.061C28.0241 57.105 27.9736 57.1489 27.9253 57.1928C27.9209 57.1972 27.9165 57.2016 27.9121 57.206Z" fill="#47393D"/>
<path d="M28.9399 93.8537C29.9678 94.6334 30.9846 95.8391 31.9421 97.2358C31.986 97.3017 32.0322 97.3654 32.0761 97.4313C33.4004 99.3969 34.6083 101.72 35.5768 103.789C35.6097 103.857 35.6405 103.923 35.6712 103.991C36.1149 104.944 36.5058 105.838 36.833 106.611C36.8396 106.624 36.844 106.64 36.8506 106.653L36.9516 106.611L37.0526 106.57C36.2115 104.571 34.9333 101.758 33.4311 99.186C33.3762 99.0916 33.3213 98.9994 33.2664 98.9071C32.0146 96.8076 30.6178 94.8969 29.1925 93.7703C29.1003 93.7944 29.019 93.823 28.9399 93.8537Z" fill="#47393D"/>
<path d="M40.8959 106.637L41.1067 106.587C39.1192 98.3205 36.5233 91.5958 33.3938 86.5995C30.3411 81.7262 26.6866 78.3507 22.5358 76.5718L22.4502 76.7716C30.7825 80.3448 36.9889 90.3923 40.8959 106.637Z" fill="#47393D"/>
<path d="M63.1811 16.5395C65.2543 12.9267 65.7199 8.13249 63.3744 4.69108C60.5413 0.533717 54.7631 -0.362324 49.7559 0.118639C40.1081 1.04762 31.1894 5.6003 22.9581 10.7196C16.3432 14.833 8.85204 20.6573 9.69537 29.4091C10.3125 35.8043 14.5226 38.1169 20.5203 37.928C33.8577 37.5086 56.3729 28.4076 63.1811 16.5395Z" fill="#D8CEDF"/>
<path d="M96.8523 7.96559V104.048C96.8523 105.39 95.8245 106.477 94.5507 106.477H49.8101C48.5386 106.477 47.5085 105.388 47.5085 104.048V7.96559C47.5085 6.62153 48.5386 5.53662 49.8101 5.53662H94.5507C95.8245 5.53662 96.8523 6.62153 96.8523 7.96559Z" fill="#2E0F46"/>
<path d="M45.5913 41.4463V104.048C45.5913 105.39 46.6213 106.48 47.8929 106.48H92.6334C93.9072 106.48 94.935 105.39 94.935 104.048V68.165V37.3219V7.96779C94.935 6.62153 93.9072 5.53662 92.6334 5.53662H47.8929C46.6213 5.53662 45.5913 6.62153 45.5913 7.96779V33.1997V41.4463Z" fill="white"/>
<path d="M92.6334 106.64H47.8928C46.5356 106.64 45.4309 105.478 45.4309 104.048V41.4463H45.7494V104.048C45.7494 105.3 46.7113 106.317 47.8928 106.317H92.6334C93.8149 106.317 94.7768 105.298 94.7768 104.048V7.96771C94.7768 6.71589 93.8149 5.69906 92.6334 5.69906H47.8928C46.7113 5.69906 45.7494 6.71809 45.7494 7.96771V31.4427H45.4309V7.96771C45.4309 6.538 46.5356 5.37622 47.8928 5.37622H92.6334C93.9906 5.37622 95.0953 6.54019 95.0953 7.96771V104.048C95.0953 105.476 93.9906 106.64 92.6334 106.64Z" fill="#48393E"/>
<path d="M92.4775 14.8835V97.1304C92.4775 98.8061 91.3135 100.163 89.8772 100.163H50.6469C49.2106 100.163 48.0466 98.8039 48.0466 97.1304V14.8835C48.0466 13.2078 49.2106 11.8506 50.6469 11.8506H89.8794C91.3135 11.8484 92.4775 13.2078 92.4775 14.8835Z" fill="#D8CEDF"/>
<path d="M86.3151 65.7821H54.2113C53.0276 65.7821 52.0569 64.8136 52.0569 63.6276V31.122C52.0569 29.9382 53.0254 28.9675 54.2113 28.9675H86.3151C87.4988 28.9675 88.4695 29.936 88.4695 31.122V63.6276C88.4695 64.8136 87.4988 65.7821 86.3151 65.7821Z" fill="white"/>
<path d="M78.9272 83.0463H61.5993C60.1762 83.0463 59.0232 81.8933 59.0232 80.4702V78.0302C59.0232 76.6071 60.1762 75.4541 61.5993 75.4541H78.9272C80.3503 75.4541 81.5033 76.6071 81.5033 78.0302V80.4702C81.5033 81.8933 80.3503 83.0463 78.9272 83.0463Z" fill="white"/>
<path d="M81.3692 42.2456V45.7024H80.1899V42.2061H79.0127V39.8474H81.3341V41.0092L86.0075 41.018V47.9952H84.8414V49.2822H86.0075V54.9066L82.4849 54.9088V53.6855H83.6884L83.6862 52.5501H84.8414V50.4681H83.6796L83.6774 47.9886H84.8414V46.8488H82.5332L82.5288 49.2822H81.3692V50.3737H81.3626V50.3781L80.203 50.3759L80.1986 48.0194H80.2008V48.0172H81.3626L81.3692 45.7024H84.8414V42.25L81.3692 42.2456Z" fill="#2E0F46"/>
<path d="M54.5474 31.6667V38.7626H61.6191V31.6667H54.5474ZM60.4397 37.5283H55.7267V32.8461H60.4397V37.5283Z" fill="#2E0F46"/>
<path d="M59.2603 34.0276H56.9016V36.3577H59.2603V34.0276Z" fill="#2E0F46"/>
<path d="M54.5474 56.0859V63.1269H61.6191V56.0859H54.5474ZM60.4397 61.9475H55.7267V57.2653H60.4397V61.9475Z" fill="#2E0F46"/>
<path d="M59.2603 58.449H56.9016V60.7791H59.2603V58.449Z" fill="#2E0F46"/>
<path d="M78.936 31.6667V38.7077H86.0077V31.6667H78.936ZM84.8284 37.5283H80.1154V32.8461H84.8284V37.5283Z" fill="#2E0F46"/>
<path d="M83.649 34.0276H81.2903V36.3577H83.649V34.0276Z" fill="#2E0F46"/>
<path d="M55.6125 45.136H55.6104V45.1448H55.6125V45.136Z" fill="#2E0F46"/>
<path d="M55.6125 45.136H55.6104V45.1448H55.6125V45.136Z" fill="#2E0F46"/>
<path d="M55.6851 45.136H55.6829V45.1448H55.6851V45.136Z" fill="#2E0F46"/>
<path d="M55.6851 45.136H55.6829V45.1448H55.6851V45.136Z" fill="#2E0F46"/>
<path d="M55.7444 45.1206H55.7422V45.1294H55.7444V45.1206Z" fill="#2E0F46"/>
<path d="M55.7444 45.1206H55.7422V45.1294H55.7444V45.1206Z" fill="#2E0F46"/>
<path d="M55.8166 45.1206H55.8145V45.1294H55.8166V45.1206Z" fill="#2E0F46"/>
<path d="M55.8166 45.1206H55.8145V45.1294H55.8166V45.1206Z" fill="#2E0F46"/>
<path d="M62.8578 39.8782H61.6213V41.0421H62.8578V39.8782Z" fill="#2E0F46"/>
<path d="M75.7777 36.7729H74.5413V37.9369H75.7777V36.7729Z" fill="#2E0F46"/>
<path d="M66.3737 43.3899H65.1943V44.5539H66.3737V43.3899Z" fill="#2E0F46"/>
<path d="M83.7016 43.447H82.5222V44.611H83.7016V43.447Z" fill="#2E0F46"/>
<path d="M64.0436 56.1035H62.8643V57.2675H64.0436V56.1035Z" fill="#2E0F46"/>
<path d="M65.2077 52.7302V58.4337H66.3673V60.7924H65.2077V61.9586H64.0437V57.2675V56.1036V52.7236L59.2736 52.7061V53.7449V53.7493V53.7449H60.453V54.9088H58.1075V53.7493H55.7488V52.5831H56.9281V51.5377H58.0943V49.2756H59.2736V51.5421H62.9259V50.4264H64.1052V51.5421H65.2319V50.433H66.3959V52.7346L65.2077 52.7302Z" fill="#2E0F46"/>
<path d="M59.2756 53.7449H59.2734V53.7493H59.2756V53.7449Z" fill="#2E0F46"/>
<path d="M55.7399 53.7383H54.5605V54.9023H55.7399V53.7383Z" fill="#2E0F46"/>
<path d="M67.5421 37.5283V38.7692L66.3694 38.7648H66.3628V37.5283H67.5421Z" fill="#2E0F46"/>
<path d="M59.289 42.2041H58.1096V43.3681H59.289V42.2041Z" fill="#2E0F46"/>
<path d="M58.1094 39.8848H55.7749V42.2061H58.1094V39.8848Z" fill="#2E0F46"/>
<path d="M67.5774 41.0378H64.0723V42.2172H67.5774V41.0378Z" fill="#2E0F46"/>
<path d="M65.1901 39.8782H64.0701V36.3774H66.3651V37.5282H65.1923V38.7647H66.3629H66.3695V41.0289H65.1901V39.8782Z" fill="#2E0F46"/>
<path d="M80.1855 43.3811V44.5605H79.0259V45.6871H76.9483V48.1051H78.1255V49.2844H74.5962V48.0985H75.7689V46.8598H74.5896V44.5956H75.7646V43.3855H76.9439V44.5605H78.0969V43.3855H78.1013V43.3811H80.1855Z" fill="#2E0F46"/>
<path d="M72.185 58.55H71.021V59.7294H72.185V58.55Z" fill="#2E0F46"/>
<path d="M80.2008 45.7024H79.0369V48.0194H80.2008V45.7024Z" fill="#2E0F46"/>
<path d="M78.1081 42.2063V43.3813H78.1015V43.3856H76.9419V42.2063H78.1081Z" fill="#2E0F46"/>
<path d="M78.1016 43.3813H78.0972V43.3857H78.1016V43.3813Z" fill="#2E0F46"/>
<path d="M78.1016 43.3813H78.0972V43.3857H78.1016V43.3813Z" fill="#2E0F46"/>
<path d="M82.5268 50.3738H81.3628V51.5531H82.5268V50.3738Z" fill="#2E0F46"/>
<path d="M80.2009 48.0173H80.1987V48.0195H80.2009V48.0173Z" fill="#2E0F46"/>
<path d="M81.3694 50.3738H81.3628V50.3782H81.3694V50.3738Z" fill="#2E0F46"/>
<path d="M81.3626 51.5554H79.0413V53.9141H81.3626V51.5554Z" fill="#2E0F46"/>
<path d="M71.0407 34.032H69.8613V35.196H71.0407V34.032Z" fill="#2E0F46"/>
<path d="M67.5421 35.207H66.3628V36.371H67.5421V35.207Z" fill="#2E0F46"/>
<path d="M64.0634 35.207H62.8269V36.371H64.0634V35.207Z" fill="#2E0F46"/>
<path d="M68.7128 33.0789H67.5488V35.196H68.7128V33.0789Z" fill="#2E0F46"/>
<path d="M73.3973 31.6228V32.789H72.2025V34.0408H71.0386V31.6228H73.3973Z" fill="#2E0F46"/>
<path d="M67.5465 60.7944H66.3672V61.9584H67.5465V60.7944Z" fill="#2E0F46"/>
<path d="M64.037 61.9607H62.8577V63.1247H64.037V61.9607Z" fill="#2E0F46"/>
<path d="M71.1395 60.7924V61.9564H68.7808V58.6687H69.9469V60.7924H71.1395Z" fill="#2E0F46"/>
<path d="M69.9009 61.9607H67.5422V63.1247H69.9009V61.9607Z" fill="#2E0F46"/>
<path d="M64.0459 56.1035H64.0437V57.2675H64.0459V56.1035Z" fill="#2E0F46"/>
<path d="M76.9485 57.2961H76.9463V58.4601H76.9485V57.2961Z" fill="#2E0F46"/>
<path d="M75.78 56.5122H75.7712V57.2743H75.78V56.5122Z" fill="#2E0F46"/>
<path d="M78.1254 58.4338H76.9614V59.6132H78.1254V58.4338Z" fill="#2E0F46"/>
<path d="M75.78 56.5122H75.7756V57.2743H75.78V56.5122Z" fill="#2E0F46"/>
<path d="M73.4147 53.769V56.1146H73.4125V56.1277H72.2486V57.2939H71.0846V56.1014H66.3672V54.9352H69.9162V53.7756H71.0956V54.9352H72.2486V53.7712H72.2617V53.769H73.4147Z" fill="#2E0F46"/>
<path d="M72.2617 53.769H72.2485V53.7712H72.2617V53.769Z" fill="#2E0F46"/>
<path d="M59.2756 53.7449H59.2734V53.7493H59.2756V53.7449Z" fill="#2E0F46"/>
<path d="M73.3883 41.0378H72.209V42.2172H73.3883V41.0378Z" fill="#2E0F46"/>
<path d="M71.0978 51.5488V51.5532H71.1L71.0978 51.5488ZM69.9207 51.5488V51.5532H69.925V51.5488H69.9207ZM59.2868 42.2041V42.2283H59.289V42.2041H59.2868ZM55.8146 45.1206V45.1294H55.8168L55.8146 45.1206ZM55.7421 45.1206V45.1294H55.7443L55.7421 45.1206ZM55.6828 45.136V45.1448H55.685L55.6828 45.136ZM55.6104 45.136V45.1448H55.6125L55.6104 45.136Z" fill="#2E0F46"/>
<path d="M61.7375 48.1294H64.0809V49.2956H62.9169V50.4551H61.7375V48.1294Z" fill="#2E0F46"/>
<path d="M68.7654 44.5495L68.7676 43.4009H69.9382V42.237H68.7698V42.2348H67.5905L67.5861 45.7025H64.0919L64.0963 42.2282L61.619 42.2238V41.0598L59.2867 41.0642L59.2845 42.204H59.2867V42.2282H60.4902V43.3878L62.8379 43.3922L62.8335 45.7003H61.6169V44.5364H60.4375V44.5386H59.2911V45.7003H56.8863V44.5451H55.7662L55.764 43.379H54.5276L54.5298 46.8643H56.3921V48.0019H58.7508V46.8643H60.4397V45.7003H61.6125L61.619 46.8643H62.8445V48.2303H64.081V46.8643H68.7566H68.7544V48.0722H67.5729V49.2538H66.3913V50.4177H69.9206V51.5444H69.925V51.5488H71.0999V51.5444H71.1021V50.4177H72.2661V46.8709H72.2727V45.7091H73.4521V44.5451H68.7654V44.5495ZM55.6125 45.1447L55.6103 45.1359H55.6125V45.1447ZM55.685 45.1447L55.6828 45.1359H55.685V45.1447ZM55.7421 45.1293L55.7399 45.1205H55.7421V45.1293ZM55.8145 45.1293L55.8124 45.1205H55.8145V45.1293ZM69.9382 45.7135H71.089V46.8687H69.936L69.9382 45.7135ZM71.0978 49.2669H69.9206V48.1052H71.0978V49.2669Z" fill="#2E0F46"/>
<path d="M75.7625 42.2129H73.3862V43.3769H75.7625V42.2129Z" fill="#2E0F46"/>
<path d="M75.7492 38.7517H74.5852V38.7605H75.7492V38.7517Z" fill="#2E0F46"/>
<path d="M76.9441 42.2063H76.9419V42.2085H76.9441V42.2063Z" fill="#2E0F46"/>
<path d="M73.4015 35.207V36.3864H72.2068V41.0335H71.0889V42.2172H69.9249V39.8585H71.0428V38.7626H68.6995V35.207H69.8634V36.3864H71.0384L71.0428 35.207H73.4015Z" fill="#2E0F46"/>
<path d="M77.7347 32.8418V35.1676H75.376V34.0036H76.5553V32.8418H77.7347Z" fill="#2E0F46"/>
<path d="M69.8634 31.625H68.6995V34.0386H69.8634V31.625Z" fill="#2E0F46"/>
<path d="M66.3804 31.6338V35.2048H64.0635V33.0877H65.2143V31.6338H66.3804Z" fill="#2E0F46"/>
<path d="M69.9229 51.5488V53.7736H67.5642V52.7216H68.7589V51.5488H69.9229Z" fill="#2E0F46"/>
<path d="M54.5188 51.5816V49.2537H56.8775V50.4198H55.6981V51.5816H54.5188Z" fill="#2E0F46"/>
<path d="M73.4257 50.3936H72.2617V52.5107H73.4257V50.3936Z" fill="#2E0F46"/>
<path d="M71.0977 51.5488H72.2616V53.7692H72.2485V53.7714H71.0977V51.5532V51.5488Z" fill="#2E0F46"/>
<path d="M71.0999 51.5488H71.0977V51.5532H71.0999V51.5488Z" fill="#2E0F46"/>
<path d="M72.2617 53.769H72.2485V53.7712H72.2617V53.769Z" fill="#2E0F46"/>
<path d="M76.9439 41.0533V42.2063H76.9417V42.2085H74.5852V38.7605H75.7514V41.0445H75.7777V41.0533H76.9439Z" fill="#2E0F46"/>
<path d="M79.2301 54.7639H78.0662V55.9433H79.2301V54.7639Z" fill="#2E0F46"/>
<path d="M78.1388 60.7925V61.9565H75.7801L75.7779 58.4624H74.5919V60.7596H73.4126V56.1279H73.4148V56.1147H74.5919V57.2962H75.7779V57.2765H75.7801V56.5122H75.7757L75.7735 52.7172H74.5897V51.5554H76.9375V56.1103H78.13V57.2765H76.9462V60.7925H78.1388Z" fill="#2E0F46"/>
<path d="M83.6686 57.272V58.515L82.4893 58.5084V57.272H83.6686Z" fill="#2E0F46"/>
<path d="M82.4981 58.5083V60.7726H81.3188V59.624H80.1394V56.1233H82.4937V57.2719H81.3209L81.3188 58.5083H82.4981Z" fill="#2E0F46"/>
<path d="M85.9988 59.5889H83.6687V60.7682H85.9988V59.5889Z" fill="#2E0F46"/>
<path d="M82.5113 60.7683H83.6775V63.127H80.2185V61.9608H82.5113V60.7683Z" fill="#2E0F46"/>
<path d="M66.5672 79.3962C66.2641 79.3084 66.0423 79.2008 65.9039 79.0734C65.7656 78.946 65.6975 78.7879 65.6975 78.6012C65.6975 78.3904 65.7831 78.2147 65.9522 78.0763C66.1213 77.938 66.341 77.8677 66.6111 77.8677C66.7956 77.8677 66.9603 77.9028 67.1052 77.9753C67.2502 78.0456 67.3622 78.1444 67.4412 78.2696C67.5203 78.3948 67.5598 78.5331 67.5598 78.6803H67.2041C67.2041 78.5177 67.1513 78.3882 67.0481 78.2959C66.9449 78.2037 66.8 78.1554 66.6111 78.1554C66.4354 78.1554 66.2992 78.1949 66.2026 78.2718C66.1038 78.3486 66.0554 78.4562 66.0554 78.5924C66.0554 78.7022 66.1016 78.7945 66.1938 78.8713C66.286 78.946 66.4442 79.0163 66.6682 79.08C66.8922 79.1437 67.0657 79.2117 67.1931 79.2886C67.3183 79.3633 67.4127 79.4533 67.4742 79.5543C67.5357 79.6554 67.5664 79.774 67.5664 79.9101C67.5664 80.1275 67.4808 80.3032 67.3117 80.4328C67.1426 80.5646 66.9142 80.6305 66.6308 80.6305C66.4464 80.6305 66.2751 80.5953 66.1147 80.5251C65.9544 80.4548 65.8314 80.3581 65.7458 80.2352C65.6601 80.1122 65.6162 79.9716 65.6162 79.8157H65.972C65.972 79.9782 66.0313 80.1056 66.1521 80.2C66.2729 80.2945 66.431 80.3406 66.633 80.3406C66.8197 80.3406 66.9625 80.3032 67.0635 80.2264C67.1645 80.1495 67.2128 80.0463 67.2128 79.9145C67.2128 79.7827 67.1667 79.6817 67.0745 79.6092C66.9756 79.5368 66.8087 79.4665 66.5672 79.3962Z" fill="#526843"/>
<path d="M68.6996 79.3457L68.3702 79.6861V80.5932H68.0166V77.9072H68.3702V79.2359L69.5649 77.9072H69.9932L68.9368 79.0932L70.0766 80.5932H69.6528L68.6996 79.3457Z" fill="#526843"/>
<path d="M71.8688 79.8904H70.7421L70.4896 80.5932H70.125L71.1506 77.9072H71.4603L72.4881 80.5932H72.1235L71.8688 79.8904ZM70.8519 79.6005H71.7655L71.3087 78.3443L70.8519 79.6005Z" fill="#526843"/>
<path d="M74.9148 80.5932H74.559L73.2061 78.5222V80.5932H72.8503V77.9072H73.2061L74.5634 79.987V77.9072H74.9148V80.5932Z" fill="#526843"/>
<path d="M94.7814 103.846L94.6145 99.7856L98.2316 99.7988L97.7484 103.857L94.7814 103.846Z" fill="#BA7F72"/>
<path d="M102.894 106.469L94.0105 106.466C93.9293 106.466 93.8678 106.387 93.8853 106.304L94.4014 103.392C94.4476 103.163 94.6979 103.058 94.8824 103.185C95.9739 103.943 97.1115 103.635 97.6672 103.159C97.8319 103.018 98.0735 103.032 98.2294 103.181C98.4534 103.396 98.785 103.673 99.154 103.84C99.9732 104.211 102.613 105.052 102.969 105.601C103.061 105.744 103.041 106.135 103.021 106.348C103.017 106.418 102.962 106.469 102.894 106.469Z" fill="#48393E"/>
<path d="M88.1467 98.0397L91.5486 95.8149L93.3912 98.9247L89.6599 100.592L88.1467 98.0397Z" fill="#BA7F72"/>
<path d="M89.8399 106.35L85.285 98.7227C85.2433 98.6525 85.2784 98.5602 85.3597 98.5317L88.3443 97.4819C88.5639 97.405 88.7835 97.5654 88.7681 97.7894C88.6759 99.1159 89.5258 99.9328 90.2198 100.166C90.4241 100.234 90.5361 100.449 90.4877 100.66C90.4197 100.961 90.3516 101.389 90.3977 101.791C90.4987 102.685 91.1334 105.382 90.8435 105.968C90.7689 106.119 90.2022 106.304 90.0112 106.396C89.9453 106.427 89.8728 106.407 89.8399 106.35Z" fill="#48393E"/>
<path d="M105.002 85.5937C103.911 92.2416 92.8025 100.91 92.8025 100.91C90.3274 98.4985 90.1122 98.1339 89.4006 95.303L96.8369 84.2936L94.3047 65.3208L103.193 65.4174C103.193 65.4152 105.828 80.5557 105.002 85.5937Z" fill="#F47920"/>
<path d="M91.5486 99.6538C91.8539 99.9744 92.3678 100.484 92.8026 100.91L94.386 99.5198L93.9095 88.7542L91.5486 99.6538Z" fill="#C4611A"/>
<path d="M101.849 85.5083C101.923 89.2154 99.5777 101.47 99.5777 101.47C97.5989 102.193 95.7607 102.294 93.0397 101.47L94.0631 85.8816C94.0631 85.8816 91.689 77.9183 91.2608 76.0889C89.8969 70.2624 91.0851 65.7251 91.0851 65.7251L98.7761 65.9513C98.7761 65.9513 101.789 82.6313 101.849 85.5083Z" fill="#F47920"/>
<path d="M91.99 67.7344C92.8421 68.2659 93.7974 68.6524 94.7879 68.9313C96.3362 69.364 97.9702 69.5309 99.4175 69.5682C101.664 69.6231 103.465 69.3684 103.814 69.3135C103.472 66.9987 103.195 65.4153 103.195 65.4153L100.32 65.3845L98.3545 65.9402L94.5332 67.0163L91.99 67.7344Z" fill="#C4611A"/>
<path d="M90.1846 68.0551C90.1846 68.0551 99.1406 70.3677 104.436 67.7938L102.753 51.0787L98.8112 48.2961L94.5242 48.2017L90.7468 49.873L90.1846 68.0551Z" fill="#7A5B93"/>
<path d="M108.123 58.2514C108.123 58.2514 105.993 52.8115 103.863 50.3452C102.347 48.5904 98.9255 48.2961 98.9255 48.2961L102.813 57.7243C102.813 57.7221 105.428 57.4213 108.123 58.2514Z" fill="#7A5B93"/>
<path d="M98.2535 56.7052H100.351C100.518 56.7052 100.658 56.5778 100.68 56.4065L101.497 51.4498C101.524 51.2433 101.37 51.0588 101.168 51.0588H99.0705C98.9036 51.0588 98.763 51.1862 98.741 51.3575L97.9241 56.3143C97.8977 56.5207 98.0536 56.7052 98.2535 56.7052Z" fill="#48393E"/>
<path d="M103.042 54.5596L102.879 54.5793L103.522 59.9103L103.685 59.8906L103.042 54.5596Z" fill="#48393E"/>
<path d="M108.349 61.5436C108.34 61.5809 108.332 61.616 108.323 61.6512C107.982 62.9359 106.867 63.6804 105.738 63.4388C105.048 63.2939 104.343 63.4169 103.691 62.299C102.261 59.8503 101.517 56.1014 101.517 56.1014C100.845 56.343 100.575 55.8774 100.206 55.8247C99.8346 55.772 99.1626 56.1124 99.1428 55.7918C99.1252 55.4689 100.182 55.3393 100.182 55.3393C100.182 55.3393 99.7094 55.2339 99.3185 55.2405C99.0396 55.2471 98.8331 55.2164 98.8529 55.0692C98.8814 54.843 99.5491 54.7903 99.5491 54.7903L100.199 54.641C100.199 54.641 99.615 54.4763 99.3426 54.5377C99.0703 54.5992 98.6443 54.6058 98.6179 54.406C98.5937 54.2083 99.1889 54.1205 99.3822 54.0436C99.5754 53.9645 100.098 54.0151 100.098 54.0151C100.098 54.0151 99.7489 53.8174 99.5249 53.813C99.3448 53.8086 98.9363 53.8987 98.8968 53.712C98.8573 53.5165 99.7006 53.231 99.962 53.2837C100.226 53.3364 101.37 53.9492 101.578 54.1446C101.717 54.2742 106.381 58.3393 106.867 58.8774C108.202 60.3554 108.22 60.8605 108.349 61.5436Z" fill="#BA7F72"/>
<path d="M103.3 49.783C105.824 53.0904 111.993 61.9476 107.317 63.6892C102.725 65.4 101.328 57.9901 101.328 57.9901C102.773 57.6804 103.57 57.0633 103.9 56.2265L103.3 49.783Z" fill="#7A5B93"/>
<path d="M91.0874 69.5464L92.7807 71.2901C93.5405 71.0463 94.0061 70.4885 94.2806 69.9944L92.8861 67.9937L91.0874 69.5464Z" fill="#BA7F72"/>
<path d="M91.9242 71.5317C92.2404 71.5317 92.5391 71.4856 92.8158 71.3956C93.4615 71.1869 94.0018 70.7213 94.3773 70.0493C94.6562 69.553 94.7441 69.1269 94.7485 69.1072L94.5332 69.0632C94.5332 69.0676 94.4476 69.4761 94.1862 69.9417C93.8326 70.5742 93.3495 70.9937 92.7477 71.1869C92.4161 71.2946 92.0494 71.3319 91.654 71.3011L91.6365 71.5208C91.7331 71.5273 91.8297 71.5317 91.9242 71.5317Z" fill="white"/>
<path d="M86.0647 62.4988C86.695 66.05 91.2235 70.4907 91.2235 70.4907C92.3831 70.0712 93.3253 69.3728 94.083 68.4438C94.083 68.4438 91.3685 62.8875 91.2499 60.8121C91.083 57.8736 93.2616 51.362 94.0764 49.0428C94.2521 48.5509 94.3619 48.2478 94.3773 48.2061C94.3795 48.2039 94.3795 48.2017 94.3795 48.2017C94.3795 48.2017 94.3619 48.2039 94.3289 48.2082L94.3224 48.2104C94.2257 48.2236 94.0171 48.2566 93.725 48.3159C92.6423 48.5399 90.4197 49.1438 88.5772 50.5648C86.3041 52.3217 85.5398 59.5559 86.0647 62.4988Z" fill="#7A5B93"/>
<path d="M93.5581 48.3138C93.5581 48.3138 95.3107 50.8833 97.4541 50.8899C99.5317 50.8965 99.389 48.3314 99.389 48.3314L96.378 47.9602L94.4454 48.1732C94.4454 48.1732 93.8502 48.2545 93.5581 48.3138Z" fill="white"/>
<path d="M98.9386 48.8716L98.4599 46.1001L95.0953 43.5569L94.3069 48.6147C94.3047 48.6147 97.9833 52.4448 98.9386 48.8716Z" fill="#BA7F72"/>
<path d="M98.796 48.0458C96.7403 48.0677 95.9739 46.3394 95.9739 46.3394L98.55 46.6117L98.796 48.0458Z" fill="#48393E"/>
<path d="M101.124 42.2302C100.685 44.5845 100.094 47.9249 97.7901 47.4417C95.271 46.9124 95.0646 44.3297 95.0954 42.4278C95.1107 41.4725 95.8333 39.9132 97.9987 40.012C100.704 40.1372 101.302 41.2814 101.124 42.2302Z" fill="#BA7F72"/>
<path d="M94.6517 43.2757C94.9877 44.2969 96.1276 43.928 96.4087 43.7149C96.782 43.4316 97.0478 42.6168 97.2213 42.529C97.8955 42.1842 100.162 43.4162 101.322 42.8584C102.334 42.3709 102.558 40.0539 101.025 39.2303C99.1451 38.2223 95.7915 39.9595 95.7915 39.9595C95.7915 39.9595 93.4065 39.4785 94.6517 43.2757Z" fill="#48393E"/>
<path d="M95.7499 43.649C95.8158 43.1461 95.3304 42.7222 94.8846 42.9265C94.7463 42.9902 94.6211 43.1022 94.5354 43.2889C94.184 44.0509 94.7067 44.7757 95.6072 44.7405L95.7499 43.649Z" fill="#BA7F72"/>
<path d="M93.7908 68.4855C93.7666 68.446 91.4233 64.4511 91.3684 61.5302C91.3047 58.203 91.8889 56.0156 91.8955 55.9937L92.0536 56.0376C92.047 56.0595 91.4694 58.2272 91.5331 61.528C91.588 64.4072 93.9094 68.3625 93.9335 68.4021L93.7908 68.4855Z" fill="#48393E"/>
<path d="M104.219 56.0319L104.116 56.1604L107.221 58.6521L107.324 58.5237L104.219 56.0319Z" fill="#48393E"/>
<path d="M103.955 63.3728C103.939 63.3552 102.411 61.651 101.427 57.9702L101.585 57.9285C102.558 61.5653 104.06 63.2454 104.076 63.263L103.955 63.3728Z" fill="#48393E"/>
<path d="M101.227 92.3077L101.064 92.2835C101.554 89.009 101.789 86.7294 101.765 85.5105C101.734 83.9644 100.834 78.3575 100.085 73.9256L100.076 73.8751L101.08 73.1614L101.174 73.2953L100.254 73.9498C101.003 78.3795 101.897 83.9578 101.928 85.5061C101.954 86.736 101.719 89.0244 101.227 92.3077Z" fill="white"/>
<path d="M91.6716 58.1196L91.52 58.0559C91.7989 57.386 92.3041 56.4856 92.3084 56.4768L92.4512 56.5581C92.4468 56.569 91.9483 57.4607 91.6716 58.1196Z" fill="#48393E"/>
<path d="M92.3413 53.4353C92.1239 51.0459 90.4394 50.1454 90.4219 50.1366L90.4965 49.9895C90.5141 49.9983 92.2776 50.9361 92.5038 53.4199L92.3413 53.4353Z" fill="#48393E"/>
<path d="M76.753 8.80445H63.7714C63.644 8.80445 63.5386 8.69904 63.5386 8.56946C63.5386 8.43989 63.6418 8.33447 63.7714 8.33447H76.753C76.8804 8.33447 76.9836 8.43989 76.9836 8.56946C76.9858 8.69904 76.8826 8.80445 76.753 8.80445Z" fill="#48393E"/>
<path d="M125.607 106.471H20.5V106.91H125.607V106.471Z" fill="#48393E"/>
<path d="M100.217 105.774H94.553V105.939H100.217V105.774Z" fill="#48393E"/>
<path d="M98.9519 104.646L98.8992 104.49C98.9036 104.488 99.3999 104.318 99.3757 103.985L99.5405 103.974C99.5734 104.433 98.9782 104.637 98.9519 104.646Z" fill="#48393E"/>
<path d="M99.6613 104.951L99.5933 104.801C99.5977 104.799 100.079 104.575 100.079 104.259H100.243C100.243 104.681 99.6855 104.94 99.6613 104.951Z" fill="#48393E"/>
<path d="M86.3606 98.9158L86.2195 99.0007L89.1398 103.854L89.2809 103.769L86.3606 98.9158Z" fill="#48393E"/>
<path d="M90.1936 102.346C89.8949 102.346 89.6182 102.112 89.6028 102.098L89.7104 101.973C89.7148 101.978 90.1167 102.311 90.389 102.12L90.4835 102.254C90.389 102.322 90.2902 102.346 90.1936 102.346Z" fill="#48393E"/>
<path d="M90.3229 103.078C90.0221 103.078 89.7234 102.876 89.7058 102.865L89.7981 102.729C89.8024 102.731 90.2417 103.027 90.5118 102.865L90.5975 103.005C90.5118 103.058 90.4174 103.078 90.3229 103.078Z" fill="#48393E"/>
</svg>
