<svg width="240" height="176" viewBox="0 0 240 176" fill="none" xmlns="http://www.w3.org/2000/svg">
<g clip-path="url(#clip0_42_398)">
<path d="M135.91 27.45C139.815 31.3525 139.815 37.685 135.91 41.59L121.768 55.7325C120.793 56.7075 119.208 56.7075 118.233 55.7325L104.09 41.59C100.185 37.685 100.185 31.3525 104.09 27.4475C107.995 23.5425 114.328 23.5425 118.233 27.4475L119.998 29.215L121.768 27.4475C125.673 23.5425 132.005 23.5425 135.91 27.4475V27.45ZM107.625 30.98C105.675 32.9325 105.675 36.1 107.625 38.0525L120 50.4275L132.375 38.0525C134.325 36.1 134.325 32.9325 132.375 30.98C130.423 29.03 127.255 29.03 125.3 30.985L119.995 36.28L114.695 30.98C112.745 29.03 109.578 29.03 107.625 30.98ZM120 2.5C125.525 2.5 130 6.975 130 12.5C130 18.025 125.525 22.5 120 22.5C114.475 22.5 110 18.025 110 12.5C110 6.975 114.475 2.5 120 2.5ZM120 7.5C117.238 7.5 115 9.7375 115 12.5C115 15.2625 117.238 17.5 120 17.5C122.763 17.5 125 15.2625 125 12.5C125 9.7375 122.763 7.5 120 7.5Z" fill="#F47920"/>
</g>
<path d="M29.5367 111.72H26.6967L19.3767 88H6.73672V92.28H9.61672L3.29672 111.72H0.776719V116H11.4567V111.72H8.89672L10.1767 107.52H18.5367L19.6967 111.72H17.2967V116H29.5367V111.72ZM17.2967 103.08H11.4967L14.5367 93.12L17.2967 103.08ZM42.2636 111.84C41.7436 112.04 41.3436 112.12 40.7036 112.12C38.6236 112.12 37.6236 111.24 37.6236 109.2V99.96H42.2236V96H37.6236V90.16H32.9036L31.3836 96H28.7836V99.64L31.3436 99.96H31.3836V110.24C31.3836 114.4 33.5836 116.56 37.9036 116.56C39.6236 116.56 41.1436 116.24 42.5836 115.52L42.2636 111.84ZM61.6795 110.88C59.7595 111.6 57.9195 111.96 56.0395 111.96C52.5995 111.96 50.4395 110.2 49.9595 107.24H62.0395C62.4795 106 62.5595 104.84 62.5595 103.68C62.5595 98.44 59.3995 95.44 53.8795 95.44C47.6395 95.44 43.4395 99.44 43.4395 106.2C43.4395 112.68 47.4395 116.56 54.1195 116.56C57.3195 116.56 60.1595 115.76 62.6395 114.52L61.6795 110.88ZM56.8795 103.48H50.0395C50.5195 101 51.8395 99.64 53.7195 99.64C55.7195 99.64 56.8795 100.92 56.8795 103.08V103.48ZM87.1761 112.04H84.8161V101.56C84.8161 97.64 82.3361 95.44 77.9361 95.44C75.6161 95.44 73.6161 96 71.9761 97.04C71.1361 96 69.8561 95.44 68.1361 95.44C66.6961 95.44 65.4161 95.84 64.3361 96.56V99.88H64.8561C66.3361 99.88 66.6961 100.72 66.6961 102.28V112.04H64.2961V116H75.3361V112.04H72.9361V100.64C73.8161 100.28 74.8161 100 75.8961 100C77.6961 100 78.5361 100.88 78.5361 102.6V116H87.1761V112.04ZM110.522 112.12H109.962C108.802 112.12 108.202 111.48 108.202 110.32V86H99.0423V89.76L101.962 90.12V96.04C100.922 95.64 99.7623 95.44 98.4823 95.44C92.2823 95.44 88.3223 99.84 88.3223 106.56C88.3223 112.88 91.9223 116.56 98.1623 116.56C100.042 116.56 101.682 116.04 103.042 115.12C103.882 116.04 105.242 116.56 106.962 116.56C108.162 116.56 109.482 116.24 110.522 115.72V112.12ZM101.922 111.4C101.122 111.84 100.242 112.12 99.1623 112.12C96.4023 112.12 94.7223 110.08 94.7223 106.44C94.7223 102.44 96.4823 99.88 99.2823 99.88C100.482 99.88 101.282 100.16 101.962 100.56L101.922 111.4ZM117.75 93.2C120.03 93.2 121.51 91.76 121.51 89.56C121.51 87.4 120.03 85.96 117.75 85.96C115.47 85.96 113.95 87.4 113.95 89.56C113.95 91.76 115.47 93.2 117.75 93.2ZM123.39 112.04H120.95V96H112.19V99.64L114.67 99.96V112.04H112.23V116H123.39V112.04ZM159.481 112.04H157.081V101.88C157.081 97.72 154.681 95.44 150.201 95.44C147.681 95.44 145.521 96.12 143.761 97.32C142.641 96.08 140.841 95.44 138.481 95.44C136.161 95.44 134.201 96 132.601 97.04C131.761 96 130.481 95.44 128.761 95.44C127.321 95.44 126.041 95.84 124.961 96.56V99.88H125.481C126.761 99.88 127.321 100.64 127.321 102.16V112.04H124.921V116H135.961V112.04H133.561V100.6C134.401 100.28 135.361 100 136.441 100C138.201 100 139.081 100.88 139.081 102.6V116H147.721V112.04H145.321V101.88C145.321 101.44 145.281 101 145.241 100.6C146.081 100.28 147.081 100 148.121 100C149.881 100 150.841 100.88 150.841 102.6V116H159.481V112.04ZM178.828 110.88C176.908 111.6 175.068 111.96 173.188 111.96C169.748 111.96 167.588 110.2 167.108 107.24H179.188C179.628 106 179.708 104.84 179.708 103.68C179.708 98.44 176.548 95.44 171.028 95.44C164.788 95.44 160.588 99.44 160.588 106.2C160.588 112.68 164.588 116.56 171.268 116.56C174.468 116.56 177.308 115.76 179.788 114.52L178.828 110.88ZM174.028 103.48H167.188C167.668 101 168.988 99.64 170.868 99.64C172.868 99.64 174.028 100.92 174.028 103.08V103.48ZM204.325 112.04H201.965V101.56C201.965 97.64 199.485 95.44 195.085 95.44C192.765 95.44 190.765 96 189.125 97.04C188.285 96 187.005 95.44 185.285 95.44C183.845 95.44 182.565 95.84 181.485 96.56V99.88H182.005C183.485 99.88 183.845 100.72 183.845 102.28V112.04H181.445V116H192.485V112.04H190.085V100.64C190.965 100.28 191.965 100 193.045 100C194.845 100 195.685 100.88 195.685 102.6V116H204.325V112.04ZM217.537 111.84C217.017 112.04 216.617 112.12 215.977 112.12C213.897 112.12 212.897 111.24 212.897 109.2V99.96H217.497V96H212.897V90.16H208.177L206.657 96H204.057V99.64L206.617 99.96H206.657V110.24C206.657 114.4 208.857 116.56 213.177 116.56C214.897 116.56 216.417 116.24 217.857 115.52L217.537 111.84ZM228.793 116.56C235.153 116.56 238.993 112.48 238.993 105.8C238.993 98.96 235.233 95.44 228.953 95.44C222.433 95.44 218.713 99.48 218.713 106.32C218.713 112.96 222.393 116.56 228.793 116.56ZM228.793 112.12C226.353 112.12 225.113 110.16 225.113 106.04C225.113 101.84 226.393 99.88 228.913 99.88C231.353 99.88 232.593 101.84 232.593 106.04C232.593 110.16 231.313 112.12 228.793 112.12Z" fill="#411564"/>
<path d="M22.7345 138V142.28H25.3345V161.72H22.7345V166H35.2945C43.8945 166 48.6545 160.96 48.6545 151.92C48.6545 142.92 43.8945 138 35.2945 138H22.7345ZM31.8945 161.72V142.28H34.6945C39.4145 142.28 41.8145 145.44 41.8145 151.92C41.8145 158.44 39.3745 161.72 34.5345 161.72H31.8945ZM60.9023 166.56C67.2623 166.56 71.1023 162.48 71.1023 155.8C71.1023 148.96 67.3423 145.44 61.0623 145.44C54.5423 145.44 50.8223 149.48 50.8223 156.32C50.8223 162.96 54.5023 166.56 60.9023 166.56ZM60.9023 162.12C58.4623 162.12 57.2223 160.16 57.2223 156.04C57.2223 151.84 58.5023 149.88 61.0223 149.88C63.4623 149.88 64.7023 151.84 64.7023 156.04C64.7023 160.16 63.4223 162.12 60.9023 162.12ZM106.903 162.04H104.503V151.88C104.503 147.72 102.103 145.44 97.623 145.44C95.103 145.44 92.943 146.12 91.183 147.32C90.063 146.08 88.263 145.44 85.903 145.44C83.583 145.44 81.623 146 80.023 147.04C79.183 146 77.903 145.44 76.183 145.44C74.743 145.44 73.463 145.84 72.383 146.56V149.88H72.903C74.183 149.88 74.743 150.64 74.743 152.16V162.04H72.343V166H83.383V162.04H80.983V150.6C81.823 150.28 82.783 150 83.863 150C85.623 150 86.503 150.88 86.503 152.6V166H95.143V162.04H92.743V151.88C92.743 151.44 92.703 151 92.663 150.6C93.503 150.28 94.503 150 95.543 150C97.303 150 98.263 150.88 98.263 152.6V166H106.903V162.04ZM114.04 143.2C116.32 143.2 117.8 141.76 117.8 139.56C117.8 137.4 116.32 135.96 114.04 135.96C111.76 135.96 110.24 137.4 110.24 139.56C110.24 141.76 111.76 143.2 114.04 143.2ZM119.68 162.04H117.24V146H108.48V149.64L110.96 149.96V162.04H108.52V166H119.68V162.04ZM138.66 161.04C136.5 161.76 135.14 162.04 133.22 162.04C129.46 162.04 127.3 159.8 127.3 155.84C127.3 152.16 129.18 149.64 132.06 149.64C132.82 149.64 133.58 149.76 134.38 149.92L134.58 153.84H138.86L139.46 146.48C136.9 145.84 134.74 145.44 131.98 145.44C125.3 145.44 120.9 149.68 120.9 156.32C120.9 162.8 124.74 166.56 131.42 166.56C134.66 166.56 136.98 165.92 139.5 164.76L138.66 161.04ZM146.969 143.2C149.249 143.2 150.729 141.76 150.729 139.56C150.729 137.4 149.249 135.96 146.969 135.96C144.689 135.96 143.169 137.4 143.169 139.56C143.169 141.76 144.689 143.2 146.969 143.2ZM152.609 162.04H150.169V146H141.409V149.64L143.889 149.96V162.04H141.449V166H152.609V162.04ZM165.696 162.04H163.216V136H154.456V139.68L156.936 139.96V162.04H154.456V166H165.696V162.04ZM173.141 143.2C175.421 143.2 176.901 141.76 176.901 139.56C176.901 137.4 175.421 135.96 173.141 135.96C170.861 135.96 169.341 137.4 169.341 139.56C169.341 141.76 170.861 143.2 173.141 143.2ZM178.781 162.04H176.341V146H167.581V149.64L170.061 149.96V162.04H167.621V166H178.781V162.04ZM200.592 162.12H199.992C198.832 162.12 198.232 161.48 198.232 160.32V152.48C198.232 147.96 195.312 145.44 190.272 145.44C187.152 145.44 184.152 146.12 181.072 147.36L181.832 151.48C184.392 150.76 186.552 150.48 188.232 150.48C190.912 150.48 191.992 151.48 191.992 153.84V154.52H188.952C183.592 154.56 180.632 156.56 180.632 160.72C180.632 164.2 183.312 166.56 187.472 166.56C189.552 166.56 191.432 166.08 193.032 165.04C193.912 166 195.232 166.56 196.992 166.56C198.192 166.56 199.512 166.24 200.592 165.68V162.12ZM191.992 157.8V161.72V161.96C191.272 162.28 190.472 162.44 189.592 162.44C187.992 162.44 187.032 161.52 187.032 160.2C187.032 158.76 187.992 157.8 190.072 157.8H191.992ZM202.386 149.72H202.986C204.146 149.72 204.786 150.52 204.786 151.88V162.04H202.386V166H213.946V162.04H211.026V150.76C212.066 150.32 213.266 150.08 214.586 150.08C215.506 150.08 216.026 150.16 216.906 150.36L217.506 145.92C216.946 145.68 216.066 145.44 215.146 145.44C213.066 145.44 211.426 145.92 209.986 146.88C209.146 145.96 207.866 145.44 206.146 145.44C204.666 145.44 203.506 145.76 202.386 146.56V149.72Z" fill="#F47920"/>
<defs>
<clipPath id="clip0_42_398">
<rect width="60" height="60" fill="white" transform="translate(90)"/>
</clipPath>
</defs>
</svg>
