<svg width="38" height="55" viewBox="0 0 38 55" fill="none" xmlns="http://www.w3.org/2000/svg">
<path d="M34.9099 25.45C38.8149 29.3525 38.8149 35.685 34.9099 39.59L20.7674 53.7325C19.7924 54.7075 18.2074 54.7075 17.2324 53.7325L3.08988 39.59C-0.815117 35.685 -0.815117 29.3525 3.08988 25.4475C6.99488 21.5425 13.3274 21.5425 17.2324 25.4475L18.9974 27.215L20.7674 25.4475C24.6724 21.5425 31.0049 21.5425 34.9099 25.4475V25.45ZM6.62488 28.98C4.67488 30.9325 4.67488 34.1 6.62488 36.0525L18.9999 48.4275L31.3749 36.0525C33.3249 34.1 33.3249 30.9325 31.3749 28.98C29.4224 27.03 26.2549 27.03 24.2999 28.985L18.9949 34.28L13.6949 28.98C11.7449 27.03 8.57738 27.03 6.62488 28.98ZM18.9999 0.5C24.5249 0.5 28.9999 4.975 28.9999 10.5C28.9999 16.025 24.5249 20.5 18.9999 20.5C13.4749 20.5 8.99988 16.025 8.99988 10.5C8.99988 4.975 13.4749 0.5 18.9999 0.5ZM18.9999 5.5C16.2374 5.5 13.9999 7.7375 13.9999 10.5C13.9999 13.2625 16.2374 15.5 18.9999 15.5C21.7624 15.5 23.9999 13.2625 23.9999 10.5C23.9999 7.7375 21.7624 5.5 18.9999 5.5Z" fill="#F47920"/>
</svg>
