<svg width="21" height="21" viewBox="0 0 21 21" fill="none" xmlns="http://www.w3.org/2000/svg">
<path d="M10.5 0.5C4.98 0.5 0.5 4.98 0.5 10.5C0.5 16.02 4.98 20.5 10.5 20.5C16.02 20.5 20.5 16.02 20.5 10.5C20.5 4.98 16.02 0.5 10.5 0.5ZM5.57 16.78C6 15.88 8.62 15 10.5 15C12.38 15 15.01 15.88 15.43 16.78C14.07 17.86 12.36 18.5 10.5 18.5C8.64 18.5 6.93 17.86 5.57 16.78ZM16.86 15.33C15.43 13.59 11.96 13 10.5 13C9.04 13 5.57 13.59 4.14 15.33C3.12 13.99 2.5 12.32 2.5 10.5C2.5 6.09 6.09 2.5 10.5 2.5C14.91 2.5 18.5 6.09 18.5 10.5C18.5 12.32 17.88 13.99 16.86 15.33ZM10.5 4.5C8.56 4.5 7 6.06 7 8C7 9.94 8.56 11.5 10.5 11.5C12.44 11.5 14 9.94 14 8C14 6.06 12.44 4.5 10.5 4.5ZM10.5 9.5C9.67 9.5 9 8.83 9 8C9 7.17 9.67 6.5 10.5 6.5C11.33 6.5 12 7.17 12 8C12 8.83 11.33 9.5 10.5 9.5Z" fill="#242528"/>
</svg>
