<svg width="26" height="26" viewBox="0 0 26 26" fill="none" xmlns="http://www.w3.org/2000/svg">
<path d="M12.9808 0.500015C10.5085 0.503821 8.09288 1.24065 6.03939 2.61733C3.98589 3.99401 2.38674 5.94871 1.44416 8.23423C0.501584 10.5198 0.257911 13.0335 0.743956 15.4575C1.23 17.8815 2.42394 20.107 4.17478 21.8524C5.92562 23.5979 8.15473 24.785 10.5802 25.2635C13.0057 25.7421 15.5187 25.4907 17.8013 24.5411C20.0839 23.5915 22.0337 21.9864 23.404 19.9286C24.7744 17.8709 25.5038 15.453 25.5 12.9808C25.4975 11.3393 25.1716 9.7143 24.5411 8.1987C23.9106 6.6831 22.9877 5.30652 21.8252 4.14758C20.6627 2.98863 19.2833 2.07001 17.7658 1.44416C16.2482 0.818307 14.6223 0.497487 12.9808 0.500015ZM8.32691 7.00001C8.91855 7.00001 9.48595 7.23504 9.9043 7.65339C10.3227 8.07174 10.5577 8.63914 10.5577 9.23078C10.5577 9.82242 10.3227 10.3898 9.9043 10.8082C9.48595 11.2265 8.91855 11.4616 8.32691 11.4616C7.73528 11.4616 7.16787 11.2265 6.74952 10.8082C6.33117 10.3898 6.09614 9.82242 6.09614 9.23078C6.09614 8.63914 6.33117 8.07174 6.74952 7.65339C7.16787 7.23504 7.73528 7.00001 8.32691 7.00001ZM18.1731 19.5385H7.67307C7.43437 19.5639 7.193 19.5388 6.96463 19.4648C6.73626 19.3909 6.526 19.2697 6.3475 19.1092C6.16901 18.9487 6.02627 18.7525 5.92856 18.5332C5.83085 18.314 5.78036 18.0766 5.78036 17.8365C5.78036 17.5965 5.83085 17.3591 5.92856 17.1399C6.02627 16.9206 6.16901 16.7244 6.3475 16.5639C6.526 16.4034 6.73626 16.2822 6.96463 16.2083C7.193 16.1343 7.43437 16.1092 7.67307 16.1346H18.1731C18.4118 16.1092 18.6531 16.1343 18.8815 16.2083C19.1099 16.2822 19.3201 16.4034 19.4986 16.5639C19.6771 16.7244 19.8199 16.9206 19.9176 17.1399C20.0153 17.3591 20.0658 17.5965 20.0658 17.8365C20.0658 18.0766 20.0153 18.314 19.9176 18.5332C19.8199 18.7525 19.6771 18.9487 19.4986 19.1092C19.3201 19.2697 19.1099 19.3909 18.8815 19.4648C18.6531 19.5388 18.4118 19.5639 18.1731 19.5385ZM17.6538 11.4616C17.2126 11.4616 16.7813 11.3307 16.4145 11.0856C16.0476 10.8405 15.7617 10.4921 15.5929 10.0845C15.424 9.67684 15.3799 9.22831 15.4659 8.79558C15.552 8.36285 15.7645 7.96537 16.0764 7.65339C16.3884 7.34141 16.7859 7.12895 17.2186 7.04288C17.6514 6.9568 18.0999 7.00098 18.5075 7.16982C18.9151 7.33866 19.2635 7.62459 19.5086 7.99143C19.7538 8.35828 19.8846 8.78958 19.8846 9.23078C19.8846 9.52373 19.8269 9.81381 19.7148 10.0845C19.6027 10.3551 19.4384 10.601 19.2312 10.8082C19.0241 11.0153 18.7782 11.1796 18.5075 11.2917C18.2369 11.4038 17.9468 11.4616 17.6538 11.4616Z" fill="#FD9903"/>
</svg>
