<svg width="26" height="26" viewBox="0 0 26 26" fill="none" xmlns="http://www.w3.org/2000/svg">
<path d="M12.9808 0.500015C10.5085 0.503821 8.09288 1.24065 6.03939 2.61733C3.98589 3.99401 2.38674 5.94871 1.44416 8.23423C0.501584 10.5198 0.257911 13.0335 0.743956 15.4575C1.23 17.8815 2.42394 20.107 4.17478 21.8524C5.92562 23.5979 8.15473 24.785 10.5802 25.2635C13.0057 25.7421 15.5187 25.4907 17.8013 24.5411C20.0839 23.5915 22.0337 21.9864 23.404 19.9286C24.7744 17.8709 25.5038 15.453 25.5 12.9808C25.4975 11.3393 25.1716 9.7143 24.5411 8.1987C23.9106 6.6831 22.9877 5.30652 21.8252 4.14758C20.6627 2.98863 19.2833 2.07001 17.7658 1.44416C16.2482 0.818307 14.6223 0.497487 12.9808 0.500015ZM8.32691 7.00001C8.91855 7.00001 9.48595 7.23504 9.9043 7.65339C10.3227 8.07174 10.5577 8.63914 10.5577 9.23078C10.5577 9.82242 10.3227 10.3898 9.9043 10.8082C9.48595 11.2265 8.91855 11.4616 8.32691 11.4616C7.73528 11.4616 7.16787 11.2265 6.74952 10.8082C6.33117 10.3898 6.09614 9.82242 6.09614 9.23078C6.09614 8.63914 6.33117 8.07174 6.74952 7.65339C7.16787 7.23504 7.73528 7.00001 8.32691 7.00001ZM17.8077 19.4039C16.2595 18.7087 14.5817 18.3494 12.8846 18.3494C11.1875 18.3494 9.5097 18.7087 7.96153 19.4039C7.60774 19.5454 7.21368 19.5489 6.85748 19.4135C6.50127 19.2781 6.20894 19.0139 6.03845 18.6731C5.9459 18.4833 5.8929 18.2767 5.88266 18.0658C5.87243 17.8549 5.90518 17.6441 5.97892 17.4463C6.05267 17.2484 6.16587 17.0676 6.31164 16.9149C6.45742 16.7621 6.63272 16.6406 6.82691 16.5577C10.4167 14.9752 14.4754 14.8238 18.1731 16.1346C19.0577 16.4808 19.7884 16.9039 19.8846 17.8462C19.8995 18.1028 19.8506 18.3591 19.7423 18.5922C19.634 18.8254 19.4698 19.0281 19.2641 19.1823C19.0585 19.3366 18.8179 19.4375 18.5637 19.4762C18.3096 19.5148 18.0499 19.49 17.8077 19.4039ZM17.6538 11.4616C17.2126 11.4616 16.7813 11.3307 16.4145 11.0856C16.0476 10.8405 15.7617 10.4921 15.5929 10.0845C15.424 9.67684 15.3799 9.22831 15.4659 8.79558C15.552 8.36285 15.7645 7.96537 16.0764 7.65339C16.3884 7.34141 16.7859 7.12895 17.2186 7.04288C17.6514 6.9568 18.0999 7.00098 18.5075 7.16982C18.9151 7.33866 19.2635 7.62459 19.5086 7.99143C19.7538 8.35828 19.8846 8.78958 19.8846 9.23078C19.8846 9.52373 19.8269 9.81381 19.7148 10.0845C19.6027 10.3551 19.4384 10.601 19.2312 10.8082C19.0241 11.0153 18.7782 11.1796 18.5075 11.2917C18.2369 11.4038 17.9468 11.4616 17.6538 11.4616Z" fill="#F17110"/>
</svg>
