<svg width="26" height="26" viewBox="0 0 26 26" fill="none" xmlns="http://www.w3.org/2000/svg">
<path d="M12.9808 0.500015C10.5085 0.503821 8.09288 1.24065 6.03939 2.61733C3.98589 3.99401 2.38674 5.94871 1.44416 8.23423C0.501584 10.5198 0.257911 13.0335 0.743956 15.4575C1.23 17.8815 2.42394 20.107 4.17478 21.8524C5.92562 23.5979 8.15473 24.785 10.5802 25.2635C13.0057 25.7421 15.5187 25.4907 17.8013 24.5411C20.0839 23.5915 22.0337 21.9864 23.404 19.9286C24.7744 17.8709 25.5038 15.453 25.5 12.9808C25.4975 11.3393 25.1716 9.7143 24.5411 8.1987C23.9106 6.6831 22.9877 5.30652 21.8252 4.14758C20.6627 2.98863 19.2833 2.07001 17.7658 1.44416C16.2482 0.818307 14.6223 0.497487 12.9808 0.500015ZM17.6346 7.00001C18.0766 6.9962 18.5098 7.12379 18.8791 7.36658C19.2485 7.60937 19.5374 7.95642 19.7092 8.36369C19.881 8.77096 19.9279 9.22009 19.8441 9.65408C19.7602 10.0881 19.5492 10.4873 19.238 10.8012C18.9268 11.1152 18.5294 11.3295 18.0962 11.4172C17.6629 11.5048 17.2134 11.4618 16.8047 11.2935C16.3959 11.1253 16.0464 10.8394 15.8004 10.4721C15.5544 10.1049 15.4231 9.6728 15.4231 9.23078C15.423 8.64246 15.6554 8.07795 16.0696 7.66015C16.4838 7.24235 17.0463 7.00508 17.6346 7.00001ZM8.32691 7.00001C8.91855 7.00001 9.48595 7.23504 9.9043 7.65339C10.3227 8.07174 10.5577 8.63914 10.5577 9.23078C10.5577 9.82242 10.3227 10.3898 9.9043 10.8082C9.48595 11.2265 8.91855 11.4616 8.32691 11.4616C7.73528 11.4616 7.16787 11.2265 6.74952 10.8082C6.33117 10.3898 6.09614 9.82242 6.09614 9.23078C6.09614 8.63914 6.33117 8.07174 6.74952 7.65339C7.16787 7.23504 7.73528 7.00001 8.32691 7.00001ZM18.9423 18.8077C15.2529 19.8851 11.3528 20.0239 7.59614 19.2115C7.15796 19.1655 6.74888 18.9704 6.43733 18.6588C6.12578 18.3473 5.93066 17.9382 5.8846 17.5C5.76922 16.3654 7.01922 15.8846 7.9423 15.8846C11.1898 16.6189 14.5602 16.6189 17.8077 15.8846C18.1651 15.7617 18.5546 15.7696 18.9068 15.9069C19.2589 16.0443 19.5509 16.3021 19.7308 16.6346C19.836 16.8264 19.8992 17.0385 19.916 17.2566C19.9328 17.4747 19.9029 17.6939 19.8283 17.8996C19.7537 18.1053 19.636 18.2926 19.4833 18.4492C19.3305 18.6058 19.1461 18.728 18.9423 18.8077Z" fill="#FFCA0D"/>
</svg>
