<svg width="26" height="26" viewBox="0 0 26 26" fill="none" xmlns="http://www.w3.org/2000/svg">
<path d="M12.9808 0.500015C10.5085 0.503821 8.09288 1.24065 6.03939 2.61733C3.98589 3.99401 2.38674 5.94871 1.44416 8.23423C0.501584 10.5198 0.257911 13.0335 0.743956 15.4575C1.23 17.8815 2.42394 20.107 4.17478 21.8524C5.92562 23.5979 8.15473 24.785 10.5802 25.2635C13.0057 25.7421 15.5187 25.4907 17.8013 24.5411C20.0839 23.5915 22.0337 21.9864 23.404 19.9286C24.7744 17.8709 25.5038 15.453 25.5 12.9808C25.4975 11.3393 25.1716 9.7143 24.5411 8.1987C23.9106 6.6831 22.9877 5.30652 21.8252 4.14758C20.6627 2.98863 19.2833 2.07001 17.7658 1.44416C16.2482 0.818307 14.6223 0.497487 12.9808 0.500015ZM17.6346 7.00001C18.0766 6.9962 18.5098 7.12379 18.8791 7.36658C19.2485 7.60937 19.5374 7.95642 19.7092 8.36369C19.881 8.77096 19.9279 9.22009 19.8441 9.65408C19.7602 10.0881 19.5492 10.4873 19.238 10.8012C18.9268 11.1152 18.5294 11.3295 18.0962 11.4172C17.6629 11.5048 17.2134 11.4618 16.8047 11.2935C16.3959 11.1253 16.0464 10.8394 15.8004 10.4721C15.5544 10.1049 15.4231 9.6728 15.4231 9.23078C15.423 8.64246 15.6554 8.07795 16.0696 7.66015C16.4838 7.24235 17.0463 7.00508 17.6346 7.00001ZM8.32691 7.00001C8.91855 7.00001 9.48595 7.23504 9.9043 7.65339C10.3227 8.07174 10.5577 8.63914 10.5577 9.23078C10.5577 9.82242 10.3227 10.3898 9.9043 10.8082C9.48595 11.2265 8.91855 11.4616 8.32691 11.4616C7.73528 11.4616 7.16787 11.2265 6.74952 10.8082C6.33117 10.3898 6.09614 9.82242 6.09614 9.23078C6.09614 8.63914 6.33117 8.07174 6.74952 7.65339C7.16787 7.23504 7.73528 7.00001 8.32691 7.00001ZM19.5384 20.0962C19.2637 20.36 18.9 20.511 18.5192 20.5192C17.8985 20.4772 17.3188 20.1943 16.9038 19.7308C15.8816 18.7258 14.5105 18.1546 13.077 18.1367C11.6435 18.1188 10.2586 18.6555 9.21153 19.6346C8.78142 20.0547 8.21528 20.307 7.61537 20.3462C7.39723 20.3464 7.18153 20.3002 6.9826 20.2107C6.78367 20.1211 6.60605 19.9903 6.46153 19.8269C5.92307 19.2115 5.76922 18.1731 6.92307 17.0962C8.64305 15.5024 10.9161 14.6411 13.2604 14.695C15.6046 14.7488 17.8358 15.7136 19.4808 17.3846C19.8913 17.8097 20.1309 18.371 20.1538 18.9615C20.1383 19.1837 20.0753 19.3999 19.9692 19.5956C19.863 19.7913 19.7162 19.962 19.5384 20.0962Z" fill="#FE2128"/>
</svg>
