<svg width="26" height="26" viewBox="0 0 26 26" fill="none" xmlns="http://www.w3.org/2000/svg">
<path d="M12.9808 0.500015C10.5085 0.503821 8.09288 1.24065 6.03939 2.61733C3.98589 3.99401 2.38674 5.94871 1.44416 8.23423C0.501584 10.5198 0.257911 13.0335 0.743956 15.4575C1.23 17.8815 2.42394 20.107 4.17478 21.8524C5.92562 23.5979 8.15473 24.785 10.5802 25.2635C13.0057 25.7421 15.5187 25.4907 17.8013 24.5411C20.0839 23.5915 22.0337 21.9864 23.404 19.9286C24.7744 17.8709 25.5038 15.453 25.5 12.9808C25.4975 11.3393 25.1716 9.7143 24.5411 8.1987C23.9106 6.6831 22.9877 5.30652 21.8252 4.14758C20.6627 2.98863 19.2833 2.07001 17.7658 1.44416C16.2482 0.818307 14.6223 0.497487 12.9808 0.500015ZM17.6346 7.00001C18.0766 6.9962 18.5098 7.12379 18.8791 7.36658C19.2485 7.60937 19.5374 7.95642 19.7092 8.36369C19.881 8.77096 19.9279 9.22009 19.8441 9.65408C19.7602 10.0881 19.5492 10.4873 19.238 10.8012C18.9268 11.1152 18.5294 11.3295 18.0962 11.4172C17.6629 11.5048 17.2134 11.4618 16.8047 11.2935C16.3959 11.1253 16.0464 10.8394 15.8004 10.4721C15.5544 10.1049 15.4231 9.6728 15.4231 9.23078C15.423 8.64246 15.6554 8.07795 16.0696 7.66015C16.4838 7.24235 17.0463 7.00508 17.6346 7.00001ZM8.32691 7.00001C8.91855 7.00001 9.48595 7.23504 9.9043 7.65339C10.3227 8.07174 10.5577 8.63914 10.5577 9.23078C10.5577 9.82242 10.3227 10.3898 9.9043 10.8082C9.48595 11.2265 8.91855 11.4616 8.32691 11.4616C7.73528 11.4616 7.16787 11.2265 6.74952 10.8082C6.33117 10.3898 6.09614 9.82242 6.09614 9.23078C6.09614 8.63914 6.33117 8.07174 6.74952 7.65339C7.16787 7.23504 7.73528 7.00001 8.32691 7.00001ZM19.2115 18.8462C17.4915 20.4399 15.2185 21.3012 12.8742 21.2473C10.53 21.1935 8.29883 20.2288 6.65384 18.5577C6.2277 18.1494 5.97907 17.5899 5.96153 17C5.99172 16.573 6.18443 16.1739 6.49999 15.8846C6.78352 15.625 7.154 15.4809 7.53845 15.4808C8.15915 15.5228 8.73884 15.8058 9.15384 16.2692C10.1908 17.2568 11.568 17.8077 13 17.8077C14.432 17.8077 15.8092 17.2568 16.8461 16.2692C17.2818 15.8604 17.8461 15.6157 18.4423 15.5769C18.6608 15.5742 18.8773 15.6192 19.0766 15.7089C19.276 15.7986 19.4533 15.9308 19.5961 16.0962C20.2115 16.75 20.3654 17.8077 19.2115 18.8462Z" fill="#19C82F"/>
</svg>
