<svg width="239" height="165" viewBox="0 0 239 165" fill="none" xmlns="http://www.w3.org/2000/svg">
<path d="M135.91 25.45C139.815 29.3525 139.815 35.685 135.91 39.59L121.767 53.7325C120.792 54.7075 119.207 54.7075 118.232 53.7325L104.09 39.59C100.185 35.685 100.185 29.3525 104.09 25.4475C107.995 21.5425 114.327 21.5425 118.232 25.4475L119.997 27.215L121.767 25.4475C125.672 21.5425 132.005 21.5425 135.91 25.4475V25.45ZM107.625 28.98C105.675 30.9325 105.675 34.1 107.625 36.0525L120 48.4275L132.375 36.0525C134.325 34.1 134.325 30.9325 132.375 28.98C130.422 27.03 127.255 27.03 125.3 28.985L119.995 34.28L114.695 28.98C112.745 27.03 109.577 27.03 107.625 28.98ZM120 0.5C125.525 0.5 130 4.975 130 10.5C130 16.025 125.525 20.5 120 20.5C114.475 20.5 110 16.025 110 10.5C110 4.975 114.475 0.5 120 0.5ZM120 5.5C117.237 5.5 115 7.7375 115 10.5C115 13.2625 117.237 15.5 120 15.5C122.762 15.5 125 13.2625 125 10.5C125 7.7375 122.762 5.5 120 5.5Z" fill="#F47920"/>
<path d="M29.5367 109.72H26.6967L19.3767 86H6.73672V90.28H9.61672L3.29672 109.72H0.776719V114H11.4567V109.72H8.89672L10.1767 105.52H18.5367L19.6967 109.72H17.2967V114H29.5367V109.72ZM17.2967 101.08H11.4967L14.5367 91.12L17.2967 101.08ZM42.2636 109.84C41.7436 110.04 41.3436 110.12 40.7036 110.12C38.6236 110.12 37.6236 109.24 37.6236 107.2V97.96H42.2236V94H37.6236V88.16H32.9036L31.3836 94H28.7836V97.64L31.3436 97.96H31.3836V108.24C31.3836 112.4 33.5836 114.56 37.9036 114.56C39.6236 114.56 41.1436 114.24 42.5836 113.52L42.2636 109.84ZM61.6795 108.88C59.7595 109.6 57.9195 109.96 56.0395 109.96C52.5995 109.96 50.4395 108.2 49.9595 105.24H62.0395C62.4795 104 62.5595 102.84 62.5595 101.68C62.5595 96.44 59.3995 93.44 53.8795 93.44C47.6395 93.44 43.4395 97.44 43.4395 104.2C43.4395 110.68 47.4395 114.56 54.1195 114.56C57.3195 114.56 60.1595 113.76 62.6395 112.52L61.6795 108.88ZM56.8795 101.48H50.0395C50.5195 99 51.8395 97.64 53.7195 97.64C55.7195 97.64 56.8795 98.92 56.8795 101.08V101.48ZM87.1761 110.04H84.8161V99.56C84.8161 95.64 82.3361 93.44 77.9361 93.44C75.6161 93.44 73.6161 94 71.9761 95.04C71.1361 94 69.8561 93.44 68.1361 93.44C66.6961 93.44 65.4161 93.84 64.3361 94.56V97.88H64.8561C66.3361 97.88 66.6961 98.72 66.6961 100.28V110.04H64.2961V114H75.3361V110.04H72.9361V98.64C73.8161 98.28 74.8161 98 75.8961 98C77.6961 98 78.5361 98.88 78.5361 100.6V114H87.1761V110.04ZM110.522 110.12H109.962C108.802 110.12 108.202 109.48 108.202 108.32V84H99.0423V87.76L101.962 88.12V94.04C100.922 93.64 99.7623 93.44 98.4823 93.44C92.2823 93.44 88.3223 97.84 88.3223 104.56C88.3223 110.88 91.9223 114.56 98.1623 114.56C100.042 114.56 101.682 114.04 103.042 113.12C103.882 114.04 105.242 114.56 106.962 114.56C108.162 114.56 109.482 114.24 110.522 113.72V110.12ZM101.922 109.4C101.122 109.84 100.242 110.12 99.1623 110.12C96.4023 110.12 94.7223 108.08 94.7223 104.44C94.7223 100.44 96.4823 97.88 99.2823 97.88C100.482 97.88 101.282 98.16 101.962 98.56L101.922 109.4ZM117.75 91.2C120.03 91.2 121.51 89.76 121.51 87.56C121.51 85.4 120.03 83.96 117.75 83.96C115.47 83.96 113.95 85.4 113.95 87.56C113.95 89.76 115.47 91.2 117.75 91.2ZM123.39 110.04H120.95V94H112.19V97.64L114.67 97.96V110.04H112.23V114H123.39V110.04ZM159.481 110.04H157.081V99.88C157.081 95.72 154.681 93.44 150.201 93.44C147.681 93.44 145.521 94.12 143.761 95.32C142.641 94.08 140.841 93.44 138.481 93.44C136.161 93.44 134.201 94 132.601 95.04C131.761 94 130.481 93.44 128.761 93.44C127.321 93.44 126.041 93.84 124.961 94.56V97.88H125.481C126.761 97.88 127.321 98.64 127.321 100.16V110.04H124.921V114H135.961V110.04H133.561V98.6C134.401 98.28 135.361 98 136.441 98C138.201 98 139.081 98.88 139.081 100.6V114H147.721V110.04H145.321V99.88C145.321 99.44 145.281 99 145.241 98.6C146.081 98.28 147.081 98 148.121 98C149.881 98 150.841 98.88 150.841 100.6V114H159.481V110.04ZM178.828 108.88C176.908 109.6 175.068 109.96 173.188 109.96C169.748 109.96 167.588 108.2 167.108 105.24H179.188C179.628 104 179.708 102.84 179.708 101.68C179.708 96.44 176.548 93.44 171.028 93.44C164.788 93.44 160.588 97.44 160.588 104.2C160.588 110.68 164.588 114.56 171.268 114.56C174.468 114.56 177.308 113.76 179.788 112.52L178.828 108.88ZM174.028 101.48H167.188C167.668 99 168.988 97.64 170.868 97.64C172.868 97.64 174.028 98.92 174.028 101.08V101.48ZM204.325 110.04H201.965V99.56C201.965 95.64 199.485 93.44 195.085 93.44C192.765 93.44 190.765 94 189.125 95.04C188.285 94 187.005 93.44 185.285 93.44C183.845 93.44 182.565 93.84 181.485 94.56V97.88H182.005C183.485 97.88 183.845 98.72 183.845 100.28V110.04H181.445V114H192.485V110.04H190.085V98.64C190.965 98.28 191.965 98 193.045 98C194.845 98 195.685 98.88 195.685 100.6V114H204.325V110.04ZM217.537 109.84C217.017 110.04 216.617 110.12 215.977 110.12C213.897 110.12 212.897 109.24 212.897 107.2V97.96H217.497V94H212.897V88.16H208.177L206.657 94H204.057V97.64L206.617 97.96H206.657V108.24C206.657 112.4 208.857 114.56 213.177 114.56C214.897 114.56 216.417 114.24 217.857 113.52L217.537 109.84ZM228.793 114.56C235.153 114.56 238.993 110.48 238.993 103.8C238.993 96.96 235.233 93.44 228.953 93.44C222.433 93.44 218.713 97.48 218.713 104.32C218.713 110.96 222.393 114.56 228.793 114.56ZM228.793 110.12C226.353 110.12 225.113 108.16 225.113 104.04C225.113 99.84 226.393 97.88 228.913 97.88C231.353 97.88 232.593 99.84 232.593 104.04C232.593 108.16 231.313 110.12 228.793 110.12Z" fill="white"/>
<path d="M22.7345 136V140.28H25.3345V159.72H22.7345V164H35.2945C43.8945 164 48.6545 158.96 48.6545 149.92C48.6545 140.92 43.8945 136 35.2945 136H22.7345ZM31.8945 159.72V140.28H34.6945C39.4145 140.28 41.8145 143.44 41.8145 149.92C41.8145 156.44 39.3745 159.72 34.5345 159.72H31.8945ZM60.9023 164.56C67.2623 164.56 71.1023 160.48 71.1023 153.8C71.1023 146.96 67.3423 143.44 61.0623 143.44C54.5423 143.44 50.8223 147.48 50.8223 154.32C50.8223 160.96 54.5023 164.56 60.9023 164.56ZM60.9023 160.12C58.4623 160.12 57.2223 158.16 57.2223 154.04C57.2223 149.84 58.5023 147.88 61.0223 147.88C63.4623 147.88 64.7023 149.84 64.7023 154.04C64.7023 158.16 63.4223 160.12 60.9023 160.12ZM106.903 160.04H104.503V149.88C104.503 145.72 102.103 143.44 97.623 143.44C95.103 143.44 92.943 144.12 91.183 145.32C90.063 144.08 88.263 143.44 85.903 143.44C83.583 143.44 81.623 144 80.023 145.04C79.183 144 77.903 143.44 76.183 143.44C74.743 143.44 73.463 143.84 72.383 144.56V147.88H72.903C74.183 147.88 74.743 148.64 74.743 150.16V160.04H72.343V164H83.383V160.04H80.983V148.6C81.823 148.28 82.783 148 83.863 148C85.623 148 86.503 148.88 86.503 150.6V164H95.143V160.04H92.743V149.88C92.743 149.44 92.703 149 92.663 148.6C93.503 148.28 94.503 148 95.543 148C97.303 148 98.263 148.88 98.263 150.6V164H106.903V160.04ZM114.04 141.2C116.32 141.2 117.8 139.76 117.8 137.56C117.8 135.4 116.32 133.96 114.04 133.96C111.76 133.96 110.24 135.4 110.24 137.56C110.24 139.76 111.76 141.2 114.04 141.2ZM119.68 160.04H117.24V144H108.48V147.64L110.96 147.96V160.04H108.52V164H119.68V160.04ZM138.66 159.04C136.5 159.76 135.14 160.04 133.22 160.04C129.46 160.04 127.3 157.8 127.3 153.84C127.3 150.16 129.18 147.64 132.06 147.64C132.82 147.64 133.58 147.76 134.38 147.92L134.58 151.84H138.86L139.46 144.48C136.9 143.84 134.74 143.44 131.98 143.44C125.3 143.44 120.9 147.68 120.9 154.32C120.9 160.8 124.74 164.56 131.42 164.56C134.66 164.56 136.98 163.92 139.5 162.76L138.66 159.04ZM146.969 141.2C149.249 141.2 150.729 139.76 150.729 137.56C150.729 135.4 149.249 133.96 146.969 133.96C144.689 133.96 143.169 135.4 143.169 137.56C143.169 139.76 144.689 141.2 146.969 141.2ZM152.609 160.04H150.169V144H141.409V147.64L143.889 147.96V160.04H141.449V164H152.609V160.04ZM165.696 160.04H163.216V134H154.456V137.68L156.936 137.96V160.04H154.456V164H165.696V160.04ZM173.141 141.2C175.421 141.2 176.901 139.76 176.901 137.56C176.901 135.4 175.421 133.96 173.141 133.96C170.861 133.96 169.341 135.4 169.341 137.56C169.341 139.76 170.861 141.2 173.141 141.2ZM178.781 160.04H176.341V144H167.581V147.64L170.061 147.96V160.04H167.621V164H178.781V160.04ZM200.592 160.12H199.992C198.832 160.12 198.232 159.48 198.232 158.32V150.48C198.232 145.96 195.312 143.44 190.272 143.44C187.152 143.44 184.152 144.12 181.072 145.36L181.832 149.48C184.392 148.76 186.552 148.48 188.232 148.48C190.912 148.48 191.992 149.48 191.992 151.84V152.52H188.952C183.592 152.56 180.632 154.56 180.632 158.72C180.632 162.2 183.312 164.56 187.472 164.56C189.552 164.56 191.432 164.08 193.032 163.04C193.912 164 195.232 164.56 196.992 164.56C198.192 164.56 199.512 164.24 200.592 163.68V160.12ZM191.992 155.8V159.72V159.96C191.272 160.28 190.472 160.44 189.592 160.44C187.992 160.44 187.032 159.52 187.032 158.2C187.032 156.76 187.992 155.8 190.072 155.8H191.992ZM202.386 147.72H202.986C204.146 147.72 204.786 148.52 204.786 149.88V160.04H202.386V164H213.946V160.04H211.026V148.76C212.066 148.32 213.266 148.08 214.586 148.08C215.506 148.08 216.026 148.16 216.906 148.36L217.506 143.92C216.946 143.68 216.066 143.44 215.146 143.44C213.066 143.44 211.426 143.92 209.986 144.88C209.146 143.96 207.866 143.44 206.146 143.44C204.666 143.44 203.506 143.76 202.386 144.56V147.72Z" fill="#F47920"/>
</svg>
